<svg width="24" height="24" viewBox="0 0 24 24" fill="none" xmlns="http://www.w3.org/2000/svg">
<path d="M12.9999 16C13.5794 15.9992 14.1466 16.1663 14.6332 16.481C15.1197 16.7957 15.5047 17.2446 15.7416 17.7735C15.9786 18.3023 16.0572 18.8884 15.9682 19.461C15.8792 20.0336 15.6262 20.5681 15.2399 21M17.9999 12H18.0099M17.9999 21H9.9999C8.93903 21 7.92161 20.5786 7.17147 19.8284C6.42132 19.0783 5.9999 18.0609 5.9999 17C5.9999 15.1435 6.73739 13.363 8.05015 12.0503C9.3629 10.7375 11.1434 10 12.9999 10H13.1999L9.5999 6.4C9.41605 6.21615 9.27021 5.99789 9.17071 5.75767C9.07121 5.51746 9.02 5.26 9.02 5C9.02 4.4749 9.22859 3.9713 9.5999 3.6C9.9712 3.2287 10.4748 3.0201 10.9999 3.0201C11.2599 3.0201 11.5174 3.07131 11.7576 3.17081C11.9978 3.27031 12.216 3.41615 12.3999 3.6L15.7999 7H15.9999M15.9999 7C19.2999 7 21.9999 9.7 21.9999 13V14C21.9999 14.5304 21.7892 15.0391 21.4141 15.4142C21.039 15.7893 20.5303 16 19.9999 16H18.9999C18.2042 16 17.4412 16.3161 16.8786 16.8787C16.316 17.4413 15.9999 18.2044 15.9999 19M15.9999 7L15.9999 4C15.9999 3.46957 16.2106 2.96086 16.5857 2.58579C16.9608 2.21071 17.4695 2 17.9999 2C18.5303 2 19.039 2.21071 19.4141 2.58579C19.7892 2.96086 19.9999 3.46957 19.9999 4V8.54M7.6119 12.524C7.3307 12.0263 6.91318 11.6194 6.40849 11.351C5.90379 11.0826 5.33293 10.964 4.76311 11.0092C4.19329 11.0543 3.64822 11.2613 3.19207 11.6058C2.73592 11.9503 2.38767 12.4179 2.18834 12.9536C1.989 13.4893 1.94686 14.0709 2.06688 14.6297C2.1869 15.1886 2.46409 15.7015 2.86581 16.1082C3.26753 16.5148 3.77706 16.7982 4.33443 16.925C4.89179 17.0519 5.47378 17.0168 6.0119 16.824" stroke="white" stroke-width="2" stroke-linecap="round" stroke-linejoin="round"/>
</svg>
