<svg width="66" height="94" viewBox="0 0 66 94" fill="none" xmlns="http://www.w3.org/2000/svg">
<path d="M62.3612 63.1911C61.7644 63.2415 61.182 63.2343 60.5852 63.1408C58.7877 62.8532 57.1555 62.1989 55.739 61.0413C55.2501 60.6386 54.8331 60.1856 54.6102 59.5816C54.5095 59.3084 54.2938 59.1574 54.0206 59.0855C53.8264 59.0352 53.6323 59.0136 53.431 59.0208C51.7557 59.1071 50.5477 59.898 49.7855 61.3864C49.5195 61.9113 49.4907 62.4362 49.7352 62.9826C49.8718 63.2774 50.1594 63.3709 50.4183 63.1696C50.5405 63.0761 50.634 62.9467 50.749 62.846C51.0726 62.5728 51.4968 62.5296 51.806 62.7525C52.1223 62.9754 52.3093 63.2846 52.3237 63.6801C52.3524 64.4207 51.8204 65.1397 51.1085 65.3338C50.2026 65.5711 49.4835 64.924 49.6417 63.9964C49.6777 63.7951 49.6489 63.6369 49.5339 63.4787C49.3613 63.2343 49.2463 63.2127 49.0162 63.414C48.7789 63.6154 48.5488 63.8239 48.3331 64.054C47.7723 64.6507 47.3265 65.3194 47.1683 66.1391C47.0029 67.0235 47.269 67.7641 48.0024 68.3106C48.4769 68.6701 49.0306 68.8642 49.613 68.9002C51.4608 69.0224 53.1074 68.5263 54.5023 67.268C55.3076 66.549 55.8828 65.7005 55.9907 64.5932C55.9979 64.5069 56.0266 64.4278 56.041 64.3416C56.0554 64.2625 56.1057 64.2121 56.1848 64.205C56.2639 64.1978 56.3142 64.2553 56.343 64.3272C56.4077 64.4926 56.4077 64.6579 56.3933 64.8305C56.343 65.5855 56.0626 66.2614 55.6312 66.8725C54.9841 67.7929 54.15 68.4975 53.1362 69.0008C52.7839 69.1734 52.4315 69.3244 52.0289 69.5113C52.2733 69.6623 52.4819 69.727 52.7048 69.7486C54.718 69.9427 56.5228 69.4538 58.0615 68.102C58.7158 67.5268 59.1688 66.8222 59.3917 65.9737C59.4132 65.8946 59.4348 65.8084 59.4636 65.7293C59.4995 65.6358 59.5427 65.5351 59.6577 65.5351C59.7727 65.5351 59.8303 65.6358 59.8375 65.7365C59.859 65.945 59.9165 66.1535 59.8734 66.3692C59.744 67.0019 59.4995 67.5772 59.1256 68.1092C58.6295 68.8067 57.9752 69.31 57.2634 69.7558C57.1483 69.8277 56.9973 69.8565 56.9398 70.0075C57.1915 70.1009 57.1915 70.1009 57.3353 70.0794C57.4719 70.0578 57.6157 70.029 57.7523 70.0146C59.5139 69.763 60.8728 68.9002 61.7932 67.3686C62.505 66.1751 62.7063 64.8593 62.7207 63.4931C62.7423 63.2127 62.6704 63.1624 62.3612 63.1911ZM18.9179 64.6795C18.6016 64.2265 18.2061 63.8383 17.7819 63.4787C17.6668 63.3853 17.5734 63.2271 17.3864 63.2918C17.2282 63.3421 17.0485 63.6657 17.0629 63.8526C17.0701 63.9245 17.0916 63.9892 17.106 64.0611C17.2282 64.737 16.7465 65.341 16.0634 65.377C15.0856 65.4273 14.2299 64.4494 14.4312 63.4931C14.5103 63.0977 14.7404 62.7813 15.1287 62.6519C15.5242 62.5153 15.8477 62.6878 16.1138 62.9826C16.1713 63.0473 16.2288 63.112 16.2935 63.1624C16.5739 63.3781 16.8615 63.2918 16.9982 62.961C17.2642 62.3499 17.1635 61.7675 16.8543 61.2138C16.2072 60.0634 15.215 59.3587 13.9351 59.0711C13.5181 58.9777 13.0939 58.992 12.6696 59.0999C12.3892 59.1718 12.1951 59.3084 12.1016 59.6032C11.9866 59.9555 11.7637 60.2503 11.512 60.5236C11.1094 60.9622 10.6564 61.3504 10.1459 61.6596C8.37708 62.7381 6.48606 63.3493 4.38652 63.1983C3.99105 63.1696 3.96948 63.1911 3.96948 63.5794C3.96948 64.1618 4.04138 64.737 4.14924 65.3051C4.67412 68.0805 6.64424 69.8493 9.45562 70.0794C9.55628 70.0865 9.67851 70.1441 9.76479 69.9715C9.42685 69.7414 9.08891 69.5185 8.75816 69.2812C7.84501 68.6197 7.21946 67.7569 6.8959 66.6784C6.80243 66.3692 6.84557 66.06 6.85995 65.7508C6.86714 65.6358 6.92466 65.5639 7.0397 65.5495C7.15475 65.5351 7.21946 65.6142 7.25541 65.7149C7.26979 65.7508 7.27698 65.794 7.28417 65.8371C7.53583 66.8653 8.10385 67.685 8.93073 68.3393C10.4191 69.5185 12.1232 69.9212 13.9855 69.7486C14.2083 69.727 14.4241 69.6767 14.6685 69.4969C14.3306 69.346 14.0502 69.2165 13.7697 69.0943C12.9213 68.7276 12.2167 68.174 11.5839 67.5125C11.0734 66.9732 10.678 66.3548 10.4622 65.6358C10.3616 65.3122 10.2825 64.9743 10.3113 64.6364C10.3256 64.4782 10.2825 64.2409 10.5054 64.2265C10.7211 64.2121 10.6708 64.4494 10.6923 64.586C10.8433 65.6214 11.3395 66.4699 12.0944 67.1745C13.1873 68.1955 14.496 68.7492 15.9771 68.9002C16.8328 68.9864 17.674 68.9074 18.4434 68.4759C19.3206 67.987 19.7161 67.1314 19.5291 66.1535C19.45 65.607 19.2271 65.1253 18.9179 64.6795ZM27.7763 72.7038C27.424 72.6463 27.0788 72.6103 26.7265 72.5744C26.3382 72.5384 26.3023 72.5744 26.2448 72.977C26.065 74.2641 25.8924 75.5511 25.7127 76.8453C25.6839 77.0251 25.6552 77.212 25.6048 77.3846C25.5761 77.4781 25.5186 77.5787 25.3963 77.55C25.2885 77.5284 25.2813 77.4349 25.2813 77.3487C25.2813 77.1617 25.2741 76.982 25.2957 76.795C25.3891 75.925 25.497 75.055 25.5976 74.185C25.648 73.7248 25.7055 73.2574 25.7558 72.7901C25.7846 72.5168 25.7415 72.4665 25.4754 72.4162C25.2669 72.373 25.0584 72.3515 24.8499 72.3227C24.4616 72.2724 24.4256 72.3011 24.3537 72.6966C24.1093 74.0052 23.9079 75.3138 23.606 76.6081C23.5772 76.7303 23.5412 76.8525 23.4909 76.9676C23.4478 77.0611 23.3543 77.1114 23.2464 77.0898C23.1314 77.0682 23.0811 76.982 23.0883 76.8741C23.0955 76.6728 23.0883 76.4786 23.117 76.2845C23.2033 75.7093 23.3112 75.1413 23.4118 74.5732C23.5341 73.8902 23.6707 73.2143 23.7857 72.5312C23.836 72.222 23.8073 72.1861 23.5125 72.1358C23.153 72.071 22.7863 72.0351 22.4268 71.9488C22.0529 71.8625 21.9666 71.9991 21.9091 72.3083C21.5064 74.487 21.0894 76.6656 20.6795 78.8514C20.622 79.1606 20.6508 79.1894 20.9743 79.1175C22.3117 78.8227 23.6419 78.9161 24.9721 79.1678C25.799 79.3188 26.5827 79.5848 27.3377 79.9443C27.6109 80.0738 27.6397 80.0522 27.6828 79.7502C27.69 79.7214 27.69 79.6927 27.69 79.6639C27.8266 77.5716 27.9704 75.4864 28.107 73.394H28.1142V73.0992C28.1214 72.7685 28.1214 72.7613 27.7763 72.7038ZM46.2479 78.8011C45.9172 77.0682 45.5864 75.3282 45.2557 73.5954C45.1694 73.1496 45.0903 72.7038 45.004 72.2652C44.9537 71.9991 44.8746 71.9416 44.6301 71.9776C44.2275 72.0279 43.8177 72.0926 43.415 72.1645C43.149 72.2149 43.1058 72.2724 43.1418 72.5384C43.1705 72.7901 43.2281 73.0417 43.2784 73.2862C43.4797 74.3432 43.6882 75.3929 43.8248 76.4571C43.8464 76.5937 43.8536 76.7375 43.8536 76.8813C43.8536 76.9963 43.8177 77.1114 43.681 77.1402C43.5372 77.1689 43.4725 77.0754 43.4294 76.9676C43.3647 76.795 43.3072 76.6225 43.2712 76.4427C43.1418 75.8028 43.0124 75.17 42.8973 74.5301C42.7823 73.9045 42.6744 73.279 42.5522 72.6535C42.4947 72.3443 42.4443 72.3155 42.1208 72.3658C41.8835 72.4018 41.6462 72.4449 41.4089 72.4737C41.2292 72.4953 41.1573 72.5887 41.1717 72.7541C41.186 72.9914 41.2076 73.2359 41.2364 73.4731C41.3658 74.6955 41.5527 75.9106 41.6318 77.1402C41.639 77.2264 41.6462 77.3127 41.6462 77.3918C41.6462 77.4781 41.6246 77.5644 41.5168 77.5787C41.4161 77.5859 41.3586 77.5284 41.3298 77.4421C41.3011 77.363 41.2795 77.2768 41.2651 77.1977C41.2076 76.8454 41.1573 76.5002 41.1069 76.1479C40.9631 75.0837 40.8193 74.0196 40.6683 72.9554C40.6252 72.6319 40.5461 72.5744 40.2225 72.6103C39.9709 72.6391 39.7192 72.6894 39.4676 72.7038C38.6479 72.7541 38.8133 72.826 38.8133 73.4731C38.842 73.8758 38.8708 74.3 38.8995 74.7242C39.0074 76.3924 39.1224 78.0533 39.2375 79.7214C39.2591 80.0522 39.295 80.0666 39.5826 79.9084C41.2867 78.9593 43.113 78.6789 45.0328 78.9161C45.3851 78.9593 45.7303 79.0456 46.061 79.1534C46.2551 79.2181 46.2911 79.1246 46.2767 78.9665C46.2695 78.9161 46.2551 78.8586 46.2479 78.8011Z" fill="#F7F6F5"/>
<path d="M6.36385 62.4578C8.03917 62.2709 9.52755 61.6453 10.8146 60.5524C11.2388 60.1929 11.5768 59.7543 11.7349 59.2006C11.9219 58.5463 11.5624 57.8705 10.9153 57.6404C10.7355 57.5757 10.6348 57.6116 10.6205 57.8057C10.5917 58.1868 10.376 58.46 10.1315 58.7189C9.70011 59.1719 9.18961 59.5242 8.62877 59.8046C7.42081 60.4086 6.12657 60.6818 4.782 60.6674C4.51597 60.6674 4.24274 60.6746 3.9767 60.6603C3.82571 60.6531 3.66752 60.6099 3.51653 60.5812C3.44462 60.5668 3.3871 60.5164 3.39429 60.4374C3.39429 60.3726 3.44462 60.3439 3.50215 60.3223C3.61719 60.2792 3.78975 60.3367 3.82571 60.1857C3.85447 60.0491 3.73942 59.9197 3.67471 59.7974C3.61719 59.6824 3.55248 59.5745 3.48058 59.4667C3.39429 59.3229 3.28644 59.3157 3.18578 59.4451C2.91974 59.7759 2.66808 60.1138 2.51709 60.5236C2.25824 61.2355 2.45956 61.7747 3.13544 62.1127C3.63157 62.3643 4.16365 62.5009 4.71729 62.5441C5.27094 62.5872 5.8174 62.5153 6.36385 62.4578ZM64.3026 60.8328C64.1876 60.2288 63.8209 59.7687 63.411 59.2797C63.1594 59.5961 62.9724 59.8765 62.9077 60.2073C63.0156 60.2936 63.1018 60.2936 63.1809 60.3079C63.2744 60.3223 63.3535 60.3511 63.3463 60.4589C63.3391 60.5668 63.2528 60.5884 63.1665 60.6027C63.0299 60.6243 62.8861 60.6603 62.7495 60.6674C61.8292 60.7178 60.9088 60.689 60.01 60.4805C58.9243 60.2288 57.9033 59.8334 57.0333 59.1144C56.6019 58.762 56.1992 58.381 56.0986 57.7914C56.0698 57.6332 55.9835 57.5685 55.8325 57.6476C55.1854 57.9783 54.8259 58.3881 54.9841 59.1215C55.0847 59.6105 55.358 59.9988 55.7175 60.3439C56.4581 61.0557 57.3137 61.595 58.2844 61.9617C59.0609 62.2493 59.859 62.3931 60.6787 62.5009C61.5631 62.6232 62.426 62.5657 63.2744 62.2781C63.5045 62.199 63.713 62.0911 63.9071 61.9329C64.2379 61.6381 64.3889 61.2786 64.3026 60.8328ZM40.0356 42.9508C39.748 43.2959 39.4532 43.641 39.144 44.0077C39.2447 44.0652 39.3094 44.0365 39.3741 44.0149C39.7408 43.9142 40.1075 43.8136 40.4742 43.7201C40.7906 43.641 40.8409 43.6698 40.9056 43.9933C41.0351 44.5757 41.0638 45.1653 40.9488 45.7621C40.8481 46.2942 40.6684 46.7975 40.4742 47.3008C40.3879 47.5165 40.5102 47.5813 40.6612 47.646C40.8194 47.7179 40.9344 47.6819 40.9991 47.5165C41.0854 47.308 41.1717 47.0995 41.2436 46.8838C41.6103 45.8772 41.8619 44.8562 41.7685 43.7704C41.6606 42.4402 41.0782 41.3905 39.8703 40.7505C38.612 40.089 37.2099 40.4198 36.347 41.5487C36.0379 41.9585 35.8222 42.4187 35.6568 42.9004C35.2038 44.2162 35.0959 45.5752 35.1607 46.9557C35.175 47.193 35.2757 47.3871 35.4051 47.5813C35.4555 47.6532 35.4914 47.7322 35.5993 47.6963C35.7143 47.6603 35.7503 47.5813 35.7431 47.4662C35.7359 47.2793 35.7359 47.0995 35.7287 46.9126C35.6999 45.9922 35.7575 45.0719 36.0163 44.1803C36.2967 43.1808 36.9654 42.5625 37.9433 42.2749C38.6407 42.0664 39.3166 42.1383 39.9493 42.505C40.237 42.6631 40.237 42.7063 40.0356 42.9508ZM30.2569 41.5918C29.8974 41.0813 29.4301 40.7002 28.8261 40.5205C27.6685 40.1753 26.216 40.7505 25.5042 41.8507C25.1303 42.4187 24.9506 43.0514 24.8858 43.7273C24.7492 45.0647 25.1519 46.3014 25.6552 47.5094C25.7055 47.6316 25.7631 47.7035 25.9069 47.6532C26.0435 47.6028 26.1298 47.5237 26.0866 47.3655C26.0578 47.2577 26.0291 47.1498 25.9931 47.042C25.8062 46.3877 25.6624 45.7262 25.6264 45.0431C25.533 43.2096 26.9351 42.3612 28.0639 42.2461C28.4881 42.203 28.9124 42.2389 29.3078 42.4187C29.466 42.4906 29.5092 42.5841 29.4085 42.7494C29.1712 43.1449 28.9411 43.5547 28.711 43.9574C28.8261 44.0149 28.8764 43.979 28.9267 43.9502C29.2863 43.7848 29.6458 43.6194 30.0053 43.4613C30.2426 43.3606 30.2857 43.375 30.3935 43.6123C30.523 43.9142 30.6093 44.2234 30.6668 44.547C30.8178 45.4314 30.8106 46.323 30.825 47.2146C30.825 47.3152 30.825 47.4159 30.8393 47.5094C30.8537 47.6028 30.9256 47.6532 31.0191 47.6603C31.0982 47.6675 31.1485 47.6244 31.1845 47.5525C31.2923 47.3799 31.3139 47.1786 31.3211 46.9845C31.357 46.0066 31.3355 45.0287 31.1701 44.0652C31.0119 43.1952 30.7818 42.3396 30.2569 41.5918Z" fill="#F7F6F5"/>
<path d="M15.5675 89.5217C15.5962 89.5289 15.625 89.536 15.6466 89.5432C17.1206 89.9818 18.6017 90.3917 20.1261 90.6146C20.7947 90.7152 21.4562 90.895 22.1393 90.8087C21.9883 90.6649 21.7582 90.6218 21.6504 90.4133C21.4634 90.0609 21.3053 89.7014 21.2262 89.306C21.1327 88.8242 21.0464 88.3353 20.9889 87.8463C20.9242 87.3358 20.9314 86.8325 21.1111 86.3436C21.1543 86.2214 21.1974 86.0775 21.3484 86.0775C21.7151 86.0775 22.0746 85.9194 22.4413 85.9913C22.9159 86.0919 23.3976 86.0488 23.8794 86.0416C23.8434 86.02 23.8075 85.9913 23.7715 85.9841C21.7654 85.7396 19.8313 85.9913 17.9978 86.89C16.9696 87.3934 16.0708 88.0692 15.3949 89.004C15.1504 89.3635 15.1648 89.385 15.5675 89.5217ZM44.9754 90.895C45.9461 90.7871 46.9168 90.6649 47.8731 90.4708C49.0379 90.2335 50.1812 89.9171 51.3172 89.572C51.7558 89.4426 51.7702 89.3707 51.4898 89.004C51.1878 88.6085 50.8427 88.2562 50.4616 87.9326C49.2608 86.9188 47.8372 86.4011 46.32 86.0847C46.1115 86.0416 45.8958 86.0416 45.6873 86.0847C45.716 86.1638 45.7376 86.2429 45.7736 86.322C45.9317 86.66 46.0036 87.0195 45.9893 87.3862C45.9821 87.7601 45.9174 88.1411 45.8527 88.5078C45.7592 89.0615 45.6513 89.6151 45.4284 90.1328C45.2415 90.5571 44.9826 90.8878 44.4506 90.8303C44.3499 90.8231 44.2492 90.8231 44.1701 90.895C44.4362 90.9381 44.7094 90.9238 44.9754 90.895Z" fill="#9F87FF"/>
<path d="M25.2166 91.5997C23.3615 91.6572 21.5136 91.5278 19.6873 91.1683C18.2852 90.895 16.9047 90.5499 15.5961 89.9387C14.9418 89.6368 14.9418 89.6296 14.6685 90.3054C14.3809 91.0173 14.3881 91.0317 15.0856 91.3337C18.0911 92.6423 21.226 93.1168 24.4832 92.8939C24.6773 92.8795 24.8786 92.9083 25.0584 92.8004C24.9433 92.7933 24.8283 92.7789 24.7204 92.7861C23.9511 92.8436 23.419 92.3978 22.8869 91.9448C22.8366 91.9017 22.7791 91.8442 22.8007 91.7651C22.8294 91.686 22.9085 91.686 22.9804 91.6788C23.1098 91.6788 23.2393 91.6572 23.3615 91.6788C24.0661 91.8154 24.7708 91.6141 25.4682 91.6716C25.5545 91.6788 25.6408 91.6644 25.7055 91.6069C25.5545 91.6069 25.3819 91.5925 25.2166 91.5997ZM52.3812 90.7369C52.2949 90.4708 52.1799 90.212 52.072 89.9459C51.9929 89.7518 51.8779 89.7015 51.6766 89.8021C51.3099 89.9819 50.9432 90.1688 50.5549 90.3054C48.3403 91.0892 46.0682 91.5422 43.717 91.6069C43.5804 91.6141 43.4294 91.5853 43.3072 91.6716C43.4725 91.6788 43.6451 91.6788 43.8105 91.686C43.9111 91.686 44.019 91.686 44.0621 91.801C44.0981 91.9017 44.0549 91.988 43.9758 92.0599C43.4941 92.4913 42.9692 92.8292 42.3077 92.8795C42.66 93.0162 43.0339 92.9443 43.3934 92.9586C45.6008 93.0377 47.7651 92.7861 49.8718 92.1102C50.6556 91.8585 51.4177 91.5781 52.1655 91.233C52.4459 91.0964 52.4747 91.0245 52.3812 90.7369ZM29.6673 82.274C29.4588 81.936 29.2143 81.6269 28.9267 81.3536C28.8476 81.2817 28.7685 81.1595 28.6463 81.217C28.5456 81.2602 28.5528 81.3824 28.5528 81.4831C28.5528 81.555 28.5456 81.6269 28.5456 81.6916C28.4809 82.8492 28.4162 84.0068 28.3515 85.1573C28.3371 85.4377 28.3156 85.7181 28.294 86.0057C28.2868 86.1351 28.294 86.2645 28.4522 86.3077C28.4522 85.8259 28.4594 85.3442 28.4594 84.8625C28.4522 84.3232 28.5744 83.7983 28.5528 83.2518C28.5456 83.0289 28.6679 82.9858 28.8476 83.1296C29.0705 83.3094 29.2287 83.5466 29.3581 83.7983C29.9621 84.9128 30.3791 86.0992 30.6811 87.3215C30.7243 87.4941 30.7818 87.6523 30.5805 87.7673C30.638 87.9255 30.7746 88.0046 30.8897 88.1052C30.9687 88.1843 31.0335 88.3066 31.1629 88.2634C31.3211 88.2131 31.2635 88.0549 31.2851 87.9327C31.2923 87.9039 31.2851 87.8752 31.2851 87.8464C31.2635 85.8475 30.7099 83.9924 29.6673 82.274ZM38.2812 81.2386C38.1877 81.2026 38.123 81.2673 38.0583 81.3249C37.7923 81.5621 37.5694 81.8354 37.3752 82.1302C36.2679 83.8271 35.7071 85.6965 35.6496 87.7098C35.6424 87.9111 35.513 88.249 35.7718 88.3066C35.9803 88.3569 36.1529 88.0693 36.2679 87.8608C36.1313 87.7313 36.1745 87.5804 36.2104 87.4294C36.4765 86.3796 36.8072 85.3442 37.2818 84.3735C37.5118 83.899 37.7563 83.4172 38.2165 83.0649C38.3603 83.1512 38.3675 83.2878 38.3747 83.4244C38.389 83.5754 38.3387 83.7408 38.4681 83.863C38.4897 83.0577 38.4178 82.2596 38.3603 81.4543C38.3675 81.3824 38.3747 81.2817 38.2812 81.2386ZM16.2648 86.6312C16.4877 86.7391 16.653 86.4946 16.804 86.3221C16.6458 86.1351 16.6818 85.9194 16.7537 85.7181C17.1348 84.6036 17.6525 83.561 18.3643 82.6191C18.4865 82.4537 18.6303 82.2955 18.8964 82.274C18.9179 82.54 18.8101 82.7845 18.8676 83.0289C19.1121 82.3603 19.1121 81.6484 19.2846 80.9654C19.3062 80.8791 19.299 80.7928 19.2127 80.7425C19.1049 80.6777 19.0258 80.7497 18.9467 80.8072C18.3212 81.2386 17.825 81.7922 17.4368 82.4393C16.7609 83.5538 16.4014 84.7762 16.236 86.0632C16.2 86.2645 16.0922 86.5522 16.2648 86.6312ZM47.9808 82.6047C48.0168 82.5041 47.9448 82.3531 48.0743 82.3027C48.1893 82.2596 48.2972 82.3459 48.3691 82.4322C48.5344 82.6263 48.6998 82.8204 48.8364 83.0289C49.4332 83.9277 49.9006 84.8912 50.2098 85.9266C50.2601 86.092 50.332 86.2574 50.0947 86.3436C50.2745 86.4874 50.4039 86.7103 50.6771 86.7103C50.6915 86.66 50.7203 86.6169 50.7203 86.5809C50.7203 86.4659 50.7203 86.358 50.7131 86.243C50.6052 85.2435 50.3536 84.2729 49.9437 83.3525C49.5986 82.576 49.1456 81.8641 48.5129 81.2745C48.3187 81.0948 48.1102 80.9222 47.8658 80.8C47.7004 80.7137 47.5997 80.7712 47.6357 80.951C47.7579 81.5046 47.7795 82.0727 47.9808 82.6047Z" fill="#9F87FF"/>
<path d="M47.3985 84.7042C47.1971 83.6329 46.9742 82.5687 46.8089 81.4902C46.7082 80.8143 46.3559 80.3829 45.7375 80.1528C45.5506 80.0809 45.3636 80.009 45.1695 79.973C43.2281 79.6063 41.3731 79.9299 39.5683 80.6561C39.3742 80.7352 39.2663 80.8574 39.3095 81.0803C39.3454 81.4902 39.3814 81.9 39.4101 82.3099C39.4748 83.2518 39.5324 84.2009 39.6115 85.1428C39.6834 85.9697 39.6977 85.8043 40.3233 85.5958C42.2862 84.9343 44.2851 84.697 46.3415 85.0421C46.6219 85.0853 46.8951 85.15 47.1756 85.2003C47.4057 85.2363 47.4632 85.1788 47.4488 84.9559C47.4344 84.8696 47.4128 84.7905 47.3985 84.7042ZM22.3118 84.8696C23.8865 84.8552 25.3101 85.1141 26.6978 85.5958C27.2515 85.7899 27.2802 85.7756 27.3234 85.186C27.4169 83.9133 27.5103 82.6478 27.5966 81.3751C27.6254 80.9293 27.611 80.915 27.2155 80.728C25.5402 79.9443 23.7786 79.7645 21.9595 79.894C21.6072 79.9227 21.262 80.0018 20.9241 80.1169C20.543 80.2463 20.3129 80.4907 20.241 80.9006C20.0109 82.1517 19.7665 83.3956 19.5292 84.6467C19.4357 85.1716 19.486 85.2147 20.0109 85.0997C20.809 84.9415 21.6072 84.8552 22.3118 84.8696ZM45.6872 86.0847C45.5578 86.0344 45.4211 85.9913 45.2773 85.9913C44.3139 85.9697 43.3576 85.9769 42.4085 86.1638C40.273 86.5737 38.3604 87.4581 36.6922 88.8602C36.3471 89.1478 36.3543 89.1981 36.7138 89.4929C37.2603 89.9387 37.893 90.2047 38.5617 90.4061C39.9422 90.8159 41.3587 90.9453 42.7823 90.9956C43.2497 91.01 43.7171 91.01 44.1701 90.9022C44.2563 90.8375 44.3498 90.8303 44.4505 90.8375C44.9825 90.8878 45.2414 90.5642 45.4283 90.14C45.6584 89.6223 45.7591 89.0687 45.8526 88.515C45.9173 88.1411 45.982 87.7672 45.9892 87.3933C45.9964 87.0338 45.9317 86.6671 45.7735 86.3292C45.7375 86.2429 45.7159 86.1638 45.6872 86.0847ZM27.5391 90.5786C28.2869 90.4061 29.0131 90.1975 29.6818 89.8164C29.9262 89.6726 30.1563 89.5145 30.372 89.3275C30.5015 89.2125 30.523 89.0902 30.3864 88.968C30.2929 88.8817 30.1995 88.7954 30.0988 88.7164C29.3438 88.098 28.5313 87.5515 27.6397 87.1489C26.439 86.6096 25.2166 86.1351 23.8793 86.0703C23.3975 86.0775 22.923 86.1135 22.4412 86.02C22.0745 85.9481 21.715 86.1063 21.3483 86.1063C21.1973 86.1063 21.1542 86.2429 21.111 86.3723C20.9385 86.8613 20.9241 87.3718 20.9888 87.8751C21.0535 88.364 21.1326 88.853 21.2261 89.3347C21.298 89.723 21.4634 90.0897 21.6503 90.442C21.7582 90.6505 21.9882 90.6937 22.1392 90.8375C22.319 90.8662 22.4987 90.9166 22.6785 90.9237C24.3179 90.9597 25.9429 90.9453 27.5391 90.5786Z" fill="#DFBEFF"/>
<path d="M43.8035 91.6859C43.6381 91.6787 43.4655 91.6787 43.3001 91.6715C41.9124 91.6787 40.5319 91.6428 39.173 91.3408C38.3173 91.1539 37.4761 90.9094 36.7283 90.4204C36.4694 90.2479 36.225 90.0609 36.0021 89.838C35.9014 89.7374 35.7936 89.687 35.6785 89.8165C35.4269 90.1185 35.168 90.4205 34.9235 90.7296C34.8085 90.8734 34.866 90.9885 35.017 91.0676C35.0673 91.0963 35.1177 91.1179 35.168 91.1395C37.4473 92.103 39.8057 92.7285 42.2863 92.8651C42.955 92.822 43.4727 92.4768 43.9545 92.0454C44.0335 91.9735 44.0767 91.8873 44.0407 91.7866C44.012 91.6859 43.9041 91.6859 43.8035 91.6859ZM31.35 89.9171C31.1127 89.6439 31.1055 89.6439 30.8539 89.8812C30.5519 90.1616 30.2139 90.3989 29.8544 90.5858C29.1354 90.9597 28.3589 91.1682 27.5679 91.348C26.9568 91.4918 26.3312 91.4558 25.7201 91.614C25.6482 91.6715 25.5619 91.6859 25.4828 91.6787C24.7781 91.614 24.0807 91.8225 23.3761 91.6859C23.2538 91.6644 23.1244 91.6787 22.995 91.6859C22.9231 91.6859 22.844 91.6859 22.8152 91.7722C22.7936 91.8513 22.844 91.9088 22.9015 91.952C23.4336 92.405 23.9657 92.8507 24.735 92.7932C24.85 92.786 24.9579 92.8004 25.0729 92.8076C25.2743 92.7932 25.4684 92.8004 25.6625 92.7717C27.2084 92.5559 28.7256 92.2324 30.1996 91.7147C30.7604 91.5206 31.3212 91.3264 31.8533 91.0532C32.1194 90.9166 32.1265 90.8734 31.954 90.6433C31.7527 90.3917 31.5585 90.1544 31.35 89.9171ZM38.3748 86.4658C38.5762 86.3652 38.6409 86.1854 38.6049 85.9697C38.5618 85.7037 38.5618 85.4376 38.5546 85.1716C38.5474 84.7402 38.569 84.3016 38.4827 83.8702C38.3533 83.7479 38.3964 83.5826 38.3892 83.4316C38.3748 83.2949 38.3748 83.1511 38.231 83.0721C37.7781 83.4172 37.5264 83.8989 37.2963 84.3807C36.8218 85.3585 36.4838 86.3867 36.225 87.4365C36.189 87.5875 36.1459 87.7385 36.2825 87.8679C36.9728 87.4006 37.6055 86.8325 38.3748 86.4658ZM30.5735 87.7745C30.7748 87.6666 30.7173 87.5012 30.6741 87.3287C30.3721 86.0991 29.9551 84.9127 29.3511 83.8055C29.2145 83.5538 29.0563 83.3165 28.8406 83.1368C28.6609 82.9858 28.5314 83.0361 28.5458 83.259C28.5674 83.7983 28.4452 84.3303 28.4523 84.8696C28.4595 85.3514 28.4523 85.8331 28.4452 86.3148C29.1642 86.7822 29.8832 87.2496 30.5735 87.7745ZM50.2171 85.9338C49.9079 84.8984 49.4406 83.9349 48.8438 83.0361C48.7072 82.8276 48.5418 82.6334 48.3764 82.4393C48.3045 82.3602 48.1967 82.2667 48.0816 82.3099C47.945 82.3602 48.0169 82.5112 47.9882 82.6119C48.0816 83.5107 48.283 84.3879 48.4555 85.2723C48.4915 85.4592 48.5418 85.6174 48.7359 85.7109C49.1961 85.9194 49.6491 86.1423 50.1021 86.3652C50.3322 86.2645 50.2675 86.0991 50.2171 85.9338ZM18.8894 82.2811C18.6305 82.2955 18.4795 82.4609 18.3573 82.6263C17.6526 83.5682 17.1278 84.6108 16.7467 85.7252C16.682 85.9266 16.6388 86.1423 16.797 86.3292C17.2428 86.1135 17.6814 85.905 18.1272 85.6965C18.307 85.6102 18.422 85.4952 18.4579 85.2938C18.5874 84.546 18.7887 83.8126 18.8606 83.0505C18.8031 82.7988 18.9109 82.5472 18.8894 82.2811Z" fill="#DFBEFF"/>
<path d="M57.2994 33.4668C57.0981 33.1001 56.8824 32.87 56.4366 33.0138C56.3719 33.0354 56.2928 33.021 56.2281 33.021C52.7624 33.0785 49.2967 33.1576 45.831 33.1936C41.8117 33.2367 37.7924 33.2583 33.7731 33.2798C31.5513 33.2942 29.3295 33.2942 27.1077 33.3014L16.7466 33.323C15.5459 33.323 14.3451 33.3589 13.1371 33.3374C12.037 33.3158 10.9297 33.3302 9.82963 33.2367C9.49169 33.2079 9.25442 33.3158 9.08904 33.6106C8.98838 33.7831 8.86615 33.9413 8.7511 34.0995C6.38552 37.2416 4.01275 40.3838 1.48899 43.4037C1.43146 43.4756 1.3308 43.5259 1.38113 43.6985C1.79816 43.7056 2.2152 43.6985 2.63942 43.6481C2.7257 43.6409 2.81918 43.6266 2.90546 43.6122C2.63942 43.5403 2.35181 43.6337 2.07139 43.5618C2.07139 43.4108 2.1433 43.3461 2.22239 43.2814C2.5819 42.9866 2.94141 42.6846 3.30811 42.4042C4.8612 41.2106 6.54371 40.2328 8.30531 39.3843C9.88716 38.6222 11.5193 37.9822 13.1731 37.407C15.0857 36.7383 17.0342 36.2206 19.0115 35.782C20.1692 35.5232 21.334 35.2787 22.506 35.1205C23.7499 34.9552 24.9938 34.797 26.2377 34.6532C27.3306 34.5237 28.4307 34.4878 29.5236 34.3656C30.4152 34.2649 31.3284 34.2865 32.2343 34.2865C33.2194 34.2865 34.2045 34.3584 35.1967 34.4087C36.3543 34.4662 37.512 34.4878 38.6624 34.5885C39.5756 34.6675 40.4887 34.761 41.3947 34.8833C42.7393 35.063 44.0766 35.2715 45.4068 35.5447C47.2475 35.9186 49.0738 36.3716 50.857 36.9756C52.5179 37.5364 54.1357 38.2123 55.6816 39.0464C57.5295 40.0386 59.2048 41.2466 60.6213 42.7997C60.722 42.9147 60.8874 43.0298 60.8226 43.1879C60.7579 43.3389 60.571 43.267 60.4344 43.267C58.8813 43.2742 57.321 43.2742 55.7679 43.2814C55.6026 43.2814 55.4228 43.2383 55.2718 43.3533C55.3725 43.3605 55.4659 43.3821 55.5666 43.3821L62.4404 43.3389C62.5699 43.3389 62.6921 43.3318 62.8071 43.2311C62.7712 43.1592 62.7352 43.0801 62.6921 43.0082C60.8442 39.8517 59.061 36.6592 57.2994 33.4668ZM26.2377 26.521C26.5181 26.4923 26.8057 26.5714 27.0718 26.4419H25.0801C22.7433 26.4276 20.4136 26.5642 18.0768 26.4276C18.0193 26.4276 17.9618 26.4204 17.9042 26.4204C17.7892 26.4204 17.7173 26.4707 17.7245 26.6001C17.7317 26.6864 17.7389 26.7727 17.7533 26.8518C18.0696 28.4049 18.3213 29.9651 18.6017 31.5254C18.6664 31.8706 18.7239 31.9209 19.0834 31.9065C20.2698 31.8777 21.4634 31.8418 22.6498 31.813L30.5878 31.6405L44.4721 31.3816C45.2199 31.3672 45.9749 31.36 46.7226 31.3457C47.0821 31.3385 47.1037 31.3241 47.1612 30.979C47.2044 30.7273 47.2331 30.4756 47.2619 30.224C47.4201 28.9873 47.5855 27.7577 47.7365 26.521C47.8012 26.0177 47.7868 26.0105 47.2979 26.0177C46.8449 26.0249 46.3919 26.0465 45.9389 26.0537C43.4798 26.0896 41.0136 26.1256 38.5545 26.1687C38.1591 26.1759 37.7636 26.1471 37.3754 26.2262C37.965 26.2981 38.5617 26.219 39.1513 26.2478C39.2592 26.255 39.3742 26.219 39.4821 26.2766C39.0579 26.7943 36.304 27.8296 34.7006 28.0166C31.6088 28.3761 28.6177 28.0885 25.7847 26.5786C25.9429 26.4851 26.0939 26.5354 26.2377 26.521ZM55.1711 44.5613H54.9554L49.268 44.5828H43.1563C42.5954 44.5828 42.6026 44.4606 42.5307 45.1437C42.5235 45.2156 42.502 45.2803 42.4948 45.3522C42.3582 46.2078 42.0418 47.0131 41.7686 47.8256C41.9627 47.8184 42.1281 47.9119 42.2791 48.0126C43.6308 48.8682 44.9251 49.7958 46.0755 50.9102C46.6651 51.4783 47.2403 52.0607 47.8084 52.6503C48.3548 53.2183 48.8509 53.8367 49.3327 54.4694C50.1596 55.5551 50.7779 56.7559 51.3172 58.007C51.4035 58.2155 51.4826 58.4312 51.4754 58.6613C52.1297 58.424 52.7984 58.2443 53.503 58.2946C53.654 58.309 53.6828 58.2083 53.7043 58.0861C53.7834 57.4677 53.8697 56.8565 53.956 56.2382C54.2292 54.2537 54.5024 52.262 54.7901 50.2775C55.0417 48.5447 55.3149 46.8118 55.581 45.079C55.6601 44.5828 55.6601 44.5685 55.1711 44.5613ZM23.7355 44.6476C23.11 44.6332 22.4916 44.6619 21.8732 44.6691C19.8528 44.6835 17.8252 44.6907 15.8047 44.6979L11.6056 44.7195C11.1454 44.7195 11.1383 44.7267 11.203 45.2012C11.3468 46.251 11.505 47.3008 11.656 48.3505C12.0514 51.0756 12.4397 53.8079 12.8351 56.533C12.907 57.0219 12.9789 57.5109 13.0437 57.9998C13.0724 58.2227 13.1587 58.3234 13.396 58.3018C13.7483 58.273 14.1006 58.3233 14.4529 58.3665C14.4817 58.2874 14.4961 58.2011 14.532 58.1292C14.9203 57.2952 15.3445 56.4755 15.8622 55.7133C17.027 53.9877 18.3285 52.377 19.9031 50.9893C21.1183 49.9252 22.3981 48.9545 23.7787 48.1132C24.1022 47.9119 24.4186 47.689 24.7925 47.5812C24.5264 46.7183 24.1813 45.8771 24.1166 44.9639C24.0806 44.7338 23.9584 44.6476 23.7355 44.6476ZM63.6915 23.7528C63.6484 23.724 63.5981 23.6881 63.5477 23.6593C62.2679 22.8756 60.9593 22.1494 59.665 21.4016C59.5787 21.3513 59.4925 21.3081 59.3846 21.3081C59.1545 21.6389 58.8238 21.8618 58.5002 22.0919C57.1772 23.0266 55.7823 23.8103 54.2436 24.3424C52.8127 24.8385 51.3531 25.0902 49.836 24.9751C49.6706 24.9608 49.5052 24.9104 49.3327 24.8889C49.1385 24.8601 49.0738 24.7379 49.0738 24.5653C48.966 24.6444 48.9156 24.7594 48.8509 24.8745C48.6568 25.2412 48.6568 25.2556 48.9947 25.4856C51.5545 27.2041 54.0495 29.016 56.5517 30.8064C56.6523 30.8783 56.7602 30.9502 56.8608 31.0293C57.0262 31.1587 57.17 31.13 57.3066 30.979C57.3642 30.9143 57.4217 30.8567 57.4792 30.792C59.0107 29.167 60.5422 27.542 62.0737 25.9099C62.6274 25.3203 63.1738 24.7307 63.7131 24.1339C63.9216 23.9326 63.9144 23.911 63.6915 23.7528ZM9.41979 31.7267L9.54922 31.6189C11.7638 29.8573 13.9784 28.1029 16.193 26.3413C16.2505 26.2981 16.308 26.255 16.3584 26.2119C16.4662 26.1184 16.4662 26.0177 16.3727 25.9171C16.308 25.838 16.2433 25.7661 16.1786 25.6942C15.5674 25.0111 14.9563 24.328 14.2876 23.6953C14.2013 23.9901 13.9712 24.1554 13.7339 24.3136C12.5044 25.1333 11.1742 25.6726 9.70021 25.8523C7.50001 26.1184 5.40046 25.7589 3.37282 24.896C2.73289 24.6228 2.11453 24.328 1.4818 24.0332C1.34518 23.9685 1.187 23.911 1.16543 23.724C1.08633 23.7456 1.00005 23.76 0.920958 23.7959C0.705252 23.8966 0.698062 23.9613 0.877817 24.1195C3.55977 26.5929 6.16262 29.1455 8.78705 31.6836C9.09623 31.9712 9.09623 31.9712 9.41979 31.7267ZM15.8191 17.6267C16.1786 18.8922 16.5093 20.1649 16.8329 21.4375C17.1493 22.6958 17.48 23.9613 17.8036 25.2196C17.9186 25.6582 17.933 25.6582 18.386 25.6366C18.652 25.6223 18.9253 25.6007 19.1913 25.5863C21.7942 25.4856 24.397 25.4137 26.9999 25.385C27.4097 25.3778 27.8196 25.4281 28.2222 25.3275C28.0496 25.3203 27.8843 25.2987 27.7117 25.2987C26.4678 25.3059 25.2239 25.3059 23.98 25.3203C23.6852 25.3275 23.4263 25.2556 23.1819 25.083C21.7151 24.0332 20.3993 22.8181 19.2129 21.4591C18.1919 20.2871 17.2931 19.0144 16.4087 17.7418C16.3512 17.6627 16.3008 17.5764 16.2577 17.4829C16.2002 17.3535 16.2361 17.26 16.3871 17.2385C16.5237 17.2169 16.6747 17.2672 16.797 17.1594C16.5453 17.1162 16.2864 17.1378 16.0348 17.145C15.704 17.145 15.704 17.1522 15.7831 17.4901C15.7975 17.5405 15.8047 17.5836 15.8191 17.6267ZM46.6148 25.1261C47.456 25.1117 47.3482 25.1908 47.4776 24.3424C47.7221 22.6743 47.9665 21.0133 48.2038 19.3452C48.3189 18.5758 48.4411 17.8065 48.5489 17.0371C48.6065 16.6129 48.5274 16.5266 48.1032 16.5482C47.7796 16.5626 47.456 16.5626 47.1253 16.5842C46.8449 16.5985 46.5573 16.5554 46.284 16.6417C46.8017 16.7064 47.3266 16.6561 47.8515 16.6561C48.3548 16.6561 48.362 16.6632 48.1463 17.1018C47.4273 18.5471 46.5716 19.906 45.5722 21.1715C44.4865 22.552 43.2785 23.8103 41.8692 24.8601C41.6751 25.0039 41.4738 25.083 41.2437 25.0902C40.6397 25.1117 40.0357 25.1261 39.4246 25.1477C39.2736 25.1549 39.1082 25.1189 38.9716 25.2196C39.0722 25.2268 39.1657 25.2412 39.2664 25.2412C41.7182 25.2052 44.1701 25.1693 46.6148 25.1261ZM34.1829 44.59C33.5933 44.6404 32.9965 44.5972 32.4069 44.6116C32.1049 44.6188 32.0834 44.6404 32.0905 44.9639C32.0977 45.4457 32.1121 45.9202 32.1265 46.402C32.1265 46.4595 32.1337 46.5098 32.1912 46.5458C32.1912 46.1935 32.1984 45.8411 32.1984 45.4888C32.1984 45.1149 32.2559 45.0646 32.637 45.0358C33.1187 44.9999 33.5861 45.1005 34.0607 45.1293C34.262 45.1437 34.3051 45.2875 34.3051 45.4601V46.4739C34.3411 46.4595 34.3842 46.4451 34.3842 46.3948C34.4058 45.8627 34.3627 45.3234 34.4346 44.7914C34.4561 44.6044 34.3267 44.5757 34.1829 44.59Z" fill="#E3CAA5"/>
<path d="M51.3244 58.007C50.7923 56.7559 50.1667 55.5551 49.3399 54.4694C48.8653 53.8438 48.3692 53.2255 47.8155 52.6503C47.2475 52.0607 46.6723 51.4783 46.0827 50.9102C44.9323 49.7957 43.638 48.8682 42.2863 48.0126C42.1353 47.9119 41.9699 47.8256 41.7758 47.8256C41.6248 48.0126 41.6607 48.1708 41.8261 48.3361C42.0562 48.559 42.2863 48.7819 42.3869 49.0983C42.4588 49.1414 42.4732 49.2062 42.4804 49.2781C42.5092 49.2996 42.5163 49.3284 42.4876 49.3428C42.4301 49.3787 42.3869 49.35 42.3582 49.2924C42.3366 49.2637 42.3078 49.2349 42.2863 49.2062C41.5313 48.6453 40.6828 48.3361 39.7625 48.1636C38.5186 47.9263 37.2675 47.876 36.002 47.9047C35.6353 47.9119 35.6281 47.9119 35.6641 48.2858C35.6928 48.5878 35.7072 48.8898 35.5275 49.1918C35.4268 49.0983 35.4196 48.9976 35.398 48.9042C35.2974 48.5303 35.132 48.1923 34.8875 47.8903C34.226 47.0778 33.0972 46.8981 32.22 47.4733C31.6376 47.8544 31.3499 48.4152 31.2421 49.0911C31.2205 49.2421 31.2565 49.4075 31.127 49.5297C30.8826 49.0767 30.8538 48.897 30.9329 48.2211C30.9617 47.9479 30.9545 47.9263 30.6884 47.9047C30.5878 47.8975 30.4871 47.8975 30.3936 47.8975C29.3295 47.8832 28.2725 47.9551 27.2228 48.1061C26.1874 48.257 25.2095 48.5447 24.3682 49.2062C24.3107 49.2924 24.2748 49.4147 24.1166 49.4147C24.095 49.2637 24.1669 49.1486 24.2676 49.048C24.3826 48.7676 24.5696 48.5447 24.8068 48.3649C24.9866 48.2283 25.001 48.0701 24.9219 47.8832C24.8787 47.7825 24.814 47.689 24.7637 47.5884C24.3898 47.689 24.0734 47.9191 23.7499 48.1204C22.3694 48.9617 21.0895 49.9324 19.8744 50.9965C18.2997 52.377 17.0055 53.9948 15.8335 55.7205C15.3158 56.4827 14.8915 57.3023 14.5033 58.1364C14.4673 58.2155 14.4529 58.2946 14.4242 58.3737C14.532 58.4168 14.6327 58.46 14.7405 58.4959C15.7975 58.8626 16.6244 59.5169 17.2068 60.4732C17.4872 60.9262 17.6742 61.4151 17.6454 61.9544C17.6238 62.3643 17.782 62.6159 18.1271 62.81C18.5514 63.0473 18.9181 63.3637 19.2272 63.7304C20.0757 64.7586 20.6437 65.8803 20.3921 67.268C20.3633 67.419 20.428 67.4765 20.5646 67.4765H20.9026C23.4191 67.4477 25.9429 67.4118 28.4595 67.3902C32.4357 67.3543 36.4119 67.3327 40.388 67.3039C42.2575 67.2895 44.127 67.2824 45.9892 67.2752C46.2696 67.2752 46.2696 67.268 46.2553 66.9876C46.2193 66.0384 46.4638 65.1684 46.9815 64.3775C47.4201 63.7088 47.9809 63.148 48.6712 62.7381C48.9084 62.5943 49.0594 62.4218 49.0523 62.127C49.0235 61.0556 49.5268 60.2288 50.2602 59.5097C50.6197 59.1574 51.0439 58.9129 51.461 58.6469C51.4825 58.424 51.4106 58.2155 51.3244 58.007ZM39.4246 54.189C39.0794 54.1674 38.7631 54.0739 38.4683 53.8798C38.2094 53.7072 38.1663 53.7072 37.9793 53.9445C37.0158 55.174 35.7072 55.8212 34.226 56.1591C32.22 56.6193 30.4152 56.1663 28.8118 54.8936C28.5817 54.7067 28.3444 54.5269 28.1575 54.2968C28.0856 54.2824 28.0137 54.2393 28.0424 54.1602C28.064 54.1027 28.1359 54.1243 28.1791 54.1602C28.2366 54.1962 28.2869 54.2393 28.3444 54.2824C28.6968 54.4263 29.0491 54.5629 29.4014 54.7139C31.7382 55.7492 34.0463 55.5767 36.3471 54.5772C36.8145 54.3759 37.2603 54.1243 37.7061 53.8798C37.8427 53.8007 37.9649 53.7144 38.0728 53.5778C37.778 53.1608 37.4976 52.7437 37.6198 52.1829C38.0944 53.0529 38.8134 53.6425 39.6762 54.0596C39.6259 54.2249 39.5036 54.1962 39.4246 54.189ZM60.6357 42.7709C59.212 41.225 57.5367 40.0099 55.696 39.0176C54.1429 38.1836 52.5323 37.5077 50.8714 36.9468C49.0882 36.3429 47.2691 35.8899 45.4212 35.516C44.091 35.2499 42.7536 35.0342 41.4091 34.8545C40.5031 34.7322 39.5899 34.6388 38.6768 34.5597C37.5191 34.459 36.3615 34.4374 35.2111 34.3799C34.226 34.3296 33.2338 34.2577 32.2487 34.2577C31.3499 34.2577 30.4368 34.2361 29.538 34.3368C28.4451 34.4662 27.345 34.5022 26.2521 34.6244C25.0082 34.7682 23.7571 34.9264 22.5204 35.0918C21.3484 35.2499 20.1835 35.4944 19.0259 35.7533C17.0486 36.1919 15.1001 36.7096 13.1875 37.3782C11.5337 37.9607 9.90153 38.5934 8.31968 39.3556C6.55808 40.204 4.87557 41.1819 3.32248 42.3754C2.95578 42.6631 2.59627 42.9579 2.23676 43.2527C2.16486 43.3102 2.08577 43.3821 2.08577 43.5331C2.36618 43.605 2.6466 43.5043 2.91983 43.5834C2.83355 43.5978 2.74007 43.6122 2.65379 43.6194C2.74007 43.6194 2.83355 43.605 2.91983 43.5834C3.07801 43.5834 3.22901 43.5978 3.38719 43.5906C5.81749 43.569 8.25497 43.5331 10.6853 43.5259C14.8196 43.5115 18.9468 43.5115 23.0812 43.5115H23.5486C23.6348 43.5115 23.7211 43.5043 23.8002 43.5043C23.9656 43.5043 24.0663 43.4108 24.1094 43.2598C24.1525 43.1232 24.1813 42.9866 24.2172 42.85C24.3754 42.2748 24.5983 41.7283 24.9435 41.2322C25.8566 39.938 27.6614 39.2837 29.1066 39.7366C30.1564 40.0674 30.8394 40.8152 31.3212 41.7715C31.5585 42.2388 31.7166 42.7421 31.8389 43.2455C31.882 43.4324 31.9611 43.4971 32.1552 43.4971C32.8743 43.4827 33.6005 43.4899 34.3195 43.4827C34.6431 43.4827 34.6503 43.4755 34.7365 43.1448C34.9379 42.4186 35.2183 41.7283 35.6641 41.11C36.6276 39.7654 38.2454 39.2477 39.7984 39.8157C41.2796 40.355 42.1209 41.4623 42.4732 42.965C42.5811 43.4108 42.5811 43.4108 43.0197 43.418H43.0628C46.4422 43.3965 49.8216 43.3749 53.2082 43.3461C53.8985 43.3389 54.5959 43.3174 55.2862 43.303C55.4372 43.1879 55.6097 43.2311 55.7823 43.2311C57.3354 43.2239 58.8957 43.2239 60.4487 43.2167C60.5782 43.2167 60.7723 43.2886 60.837 43.1376C60.9017 43.001 60.7364 42.886 60.6357 42.7709ZM16.4087 17.749C17.2931 19.0288 18.1918 20.2943 19.2129 21.4663C20.3992 22.8252 21.7151 24.0404 23.1819 25.0902C23.4191 25.2627 23.678 25.3346 23.98 25.3274C25.2239 25.3131 26.4678 25.3059 27.7117 25.3059C27.8771 25.3059 28.0496 25.3203 28.2222 25.3346C28.3372 25.3418 28.4451 25.349 28.5601 25.349C31.1414 25.3274 33.7299 25.3059 36.3112 25.2771C37.2028 25.2699 38.0872 25.2484 38.9788 25.2268C39.1154 25.1333 39.2807 25.1621 39.4317 25.1549C40.0357 25.1333 40.6397 25.1189 41.2509 25.0974C41.481 25.0902 41.6823 25.0039 41.8764 24.8673C43.2857 23.8103 44.4937 22.552 45.5794 21.1787C46.5788 19.9132 47.4345 18.5471 48.1535 17.109C48.3764 16.6704 48.362 16.6632 47.8587 16.6632C47.3338 16.6632 46.8161 16.7064 46.2912 16.6489C46.1618 16.6489 46.0396 16.6345 45.9101 16.6417C41.6391 16.7279 37.3682 16.8214 33.0972 16.8933C29.0059 16.9652 24.9219 17.0084 20.8307 17.0659C19.4861 17.0875 18.1415 17.1018 16.8041 17.1881C16.6819 17.296 16.5309 17.2456 16.3943 17.2672C16.2361 17.2888 16.2073 17.3823 16.2649 17.5117C16.3008 17.5836 16.3512 17.6699 16.4087 17.749ZM9.7002 25.8379C11.1742 25.6582 12.5116 25.1189 13.7339 24.2992C13.9712 24.1411 14.1941 23.9685 14.2876 23.6809C14.2228 23.5155 14.0862 23.4077 13.9712 23.2854C12.7776 21.9768 11.5409 20.7113 10.3833 19.3739C10.0741 19.0144 10.0741 19.0144 9.64268 19.2373C8.03207 20.0858 6.42147 20.9414 4.81086 21.797C3.59571 22.437 2.38775 23.0769 1.17261 23.7096C1.19418 23.8966 1.34517 23.9541 1.48898 24.0188C2.11453 24.3064 2.74008 24.6084 3.38 24.8816C5.40045 25.7445 7.5 26.104 9.7002 25.8379ZM49.3471 24.896C49.5124 24.9176 49.6778 24.9679 49.8504 24.9823C51.3675 25.0974 52.8343 24.8457 54.258 24.3496C55.7895 23.8175 57.1916 23.0338 58.5146 22.099C58.8381 21.8689 59.1617 21.6461 59.399 21.3153C59.3415 21.2146 59.2336 21.1643 59.1329 21.1068C57.1053 19.9923 55.0848 18.8634 53.086 17.6914C52.8127 17.5332 52.8055 17.5404 52.6546 17.8352L50.7779 21.3944C50.2171 22.4514 49.6562 23.5155 49.0954 24.5725C49.0882 24.745 49.1529 24.8673 49.3471 24.896ZM39.1513 26.255C38.5617 26.2262 37.9649 26.3053 37.3753 26.2334C35.9229 26.2622 34.4633 26.2837 33.0109 26.3125L27.079 26.4419C26.8129 26.5714 26.5253 26.4851 26.2449 26.521C26.1011 26.5354 25.9501 26.4851 25.7919 26.5929C28.6177 28.1029 31.616 28.3977 34.7078 28.031C36.3184 27.844 39.065 26.8086 39.4893 26.2909C39.3742 26.2262 39.2592 26.2622 39.1513 26.255ZM32.3925 46.5026C32.9246 46.3085 33.4639 46.2654 34.0103 46.4307C34.1038 46.4595 34.1973 46.4883 34.2979 46.4667V45.4529C34.2979 45.2803 34.2548 45.1365 34.0535 45.1221C33.5789 45.0933 33.1115 44.9855 32.6298 45.0286C32.2487 45.0574 32.1912 45.1149 32.1912 45.4816C32.1912 45.8339 32.184 46.1863 32.184 46.5386C32.2703 46.5673 32.3278 46.5242 32.3925 46.5026ZM51.3747 63.3637C51.2165 63.299 51.1015 63.3853 51.008 63.4931C50.857 63.6585 50.7132 63.8311 50.5694 64.0036C50.4759 64.1115 50.3681 64.2265 50.4687 64.3775C50.5694 64.5357 50.7276 64.586 50.9073 64.5501C51.274 64.4854 51.5832 64.1187 51.5832 63.7232C51.5832 63.5794 51.5473 63.4356 51.3747 63.3637ZM15.7472 63.5147C15.6393 63.3996 15.5315 63.2774 15.3445 63.3637C15.172 63.4428 15.1576 63.5938 15.1504 63.7376C15.1648 64.1187 15.4524 64.4638 15.8191 64.5357C16.006 64.5716 16.157 64.5213 16.2649 64.3631C16.3727 64.2049 16.2505 64.0971 16.157 63.9892C16.0276 63.8382 15.891 63.6729 15.7472 63.5147Z" fill="#FDF5D0"/>
<path d="M64.8995 56.3604C65.2662 55.7061 65.5897 55.0302 65.9061 54.3471C66.0715 53.9948 66.0211 53.6712 65.7335 53.4196C64.9642 52.7653 64.2955 52.0175 63.5765 51.32C63.1882 50.9462 62.8071 50.5723 62.4332 50.184C61.592 49.3284 60.7723 48.444 59.8304 47.7034C59.327 47.3079 58.8381 46.8837 58.3564 46.4666C57.8602 46.0424 57.3138 45.6613 56.8824 45.1652C56.7673 45.0358 56.5157 44.9783 56.6163 44.7482C56.7098 44.5397 56.9399 44.6116 57.1125 44.6116C59.1257 44.6116 61.1318 44.6116 63.145 44.6188C63.2745 44.6188 63.4039 44.626 63.5261 44.6116C64.1157 44.5469 64.4537 43.9716 64.2164 43.4252C64.0726 43.0872 63.9216 42.7493 63.7562 42.4257C62.9653 40.8583 62.1025 39.334 61.2396 37.8024C60.2546 36.0552 59.2551 34.3152 58.2845 32.5536C57.9106 31.8777 57.9249 32.1078 58.3923 31.4607C58.4139 31.4247 58.4498 31.4031 58.4786 31.3672L59.665 29.9867C60.1036 29.469 60.5422 28.9585 60.9808 28.4408C61.441 27.9015 61.9011 27.3694 62.3613 26.8302C62.764 26.3556 63.1738 25.8883 63.5765 25.4137C63.9719 24.9535 64.3818 24.5005 64.77 24.0404C65.0289 23.7312 64.9498 23.307 64.5903 23.156C63.8209 22.8252 63.1091 22.3866 62.3613 22.0127C61.7501 21.7107 61.1534 21.3944 60.5566 21.0636C59.2048 20.323 57.8602 19.5752 56.5085 18.8347C55.9548 18.5255 55.4012 18.2019 54.8332 17.9215C54.2148 17.6123 53.618 17.2456 52.9781 16.9868C52.6617 16.8573 52.482 16.9292 52.295 17.2169C52.1584 17.4326 52.0146 17.6411 51.8924 17.864C50.9504 19.489 50.0301 21.1283 49.1313 22.7821C49.0522 22.9331 48.9659 23.0769 48.8725 23.2207C48.7934 23.3501 48.7646 23.5155 48.5705 23.6521C48.6064 23.4436 48.6424 23.3142 48.6568 23.1704C48.7502 22.0774 48.9012 20.9845 49.0307 19.8916C49.1673 18.7556 49.2607 17.6195 49.4189 16.4835C49.4405 16.3325 49.4333 16.1743 49.4117 16.0161C49.3902 15.8076 49.2679 15.6782 49.0594 15.6494C48.9516 15.635 48.8365 15.635 48.7215 15.635C47.6357 15.6494 46.5428 15.6206 45.4571 15.6997C44.2707 15.786 43.0843 15.6925 41.898 15.7788C40.6756 15.8723 39.4389 15.7716 38.2094 15.8651C37.1237 15.9514 36.0379 15.8579 34.945 15.9442C33.8305 16.0305 32.7161 15.9442 31.5944 16.0377C30.6812 16.1168 29.7609 16.0449 28.8405 16.1168C27.8411 16.1958 26.8345 16.1239 25.835 16.2102C24.9506 16.2893 24.059 16.239 23.1675 16.2821C21.8445 16.354 20.5143 16.3253 19.1841 16.3828C18.2493 16.4187 17.3146 16.4044 16.3799 16.39C16.0851 16.39 15.8047 16.5122 15.4955 16.4475C15.1216 16.3756 15.0497 16.4547 15.0281 16.8286C14.9994 17.3175 15.136 17.7849 15.2295 18.2522C15.5818 20.0139 15.9772 21.7611 16.3439 23.5155C16.4302 23.9253 16.574 24.3208 16.5812 24.8025C16.3583 24.6659 16.2073 24.5149 16.0851 24.3495C15.5171 23.6233 14.8196 23.0194 14.2013 22.3363C13.6188 21.682 13.0436 21.0133 12.3965 20.4237C12.3678 20.3949 12.339 20.359 12.3102 20.3302C11.735 19.6256 11.0879 19 10.3904 18.4176C10.2035 18.2594 10.0166 18.2235 9.80803 18.3313C9.55638 18.4608 9.31191 18.6046 9.06025 18.734C7.71568 19.4386 6.3783 20.1361 5.03373 20.8335C3.93363 21.4088 2.82634 21.984 1.73342 22.5808C1.22292 22.854 0.712412 23.1272 0.245049 23.4723C-0.0569405 23.6952 -0.0785111 23.8103 0.173146 24.0835C0.863407 24.8313 1.55367 25.5791 2.24393 26.3197C2.91262 27.0315 3.60288 27.7146 4.28595 28.4192C5.35729 29.5265 6.39987 30.6626 7.49997 31.7483C7.74444 31.9856 7.98891 32.2228 8.22619 32.4673C8.46346 32.7118 8.46346 32.7333 8.26933 33.0066C7.98891 33.3948 7.70849 33.7903 7.4065 34.1642C6.35673 35.48 5.37167 36.839 4.36504 38.1907C3.40155 39.4849 2.47402 40.8008 1.54648 42.1166C1.13664 42.6918 0.748364 43.2814 0.374473 43.8854C0.144386 44.2521 0.245048 44.4822 0.669271 44.5469C1.20135 44.626 1.73342 44.6835 2.27269 44.6835C4.56637 44.6835 6.86005 44.6835 9.15372 44.6907C9.28315 44.6907 9.41257 44.6835 9.53481 44.6979C9.69299 44.7194 9.85837 44.7482 9.9087 44.9208C9.95903 45.0861 9.85837 45.2227 9.73613 45.3234C9.17529 45.8051 8.62884 46.2869 8.06081 46.7543C7.13327 47.5164 6.22731 48.3073 5.36448 49.1414C3.92644 50.5507 2.52435 51.9887 1.0863 53.3908C0.698032 53.7719 0.712413 54.0883 0.913739 54.4837C1.36672 55.3681 1.79813 56.2597 2.25112 57.1369C2.46682 57.5683 2.7041 57.9854 2.927 58.4096C3.11394 58.7835 3.10675 58.7907 2.79038 59.0423C2.66815 59.1358 2.54592 59.2365 2.43806 59.3515C2.01384 59.7973 1.73342 60.3222 1.71185 60.9405C1.69028 61.8106 1.95632 62.4002 2.86948 62.7741C3.40155 62.9898 3.55255 63.2846 3.48784 63.8023C3.46626 63.9389 3.48784 64.0827 3.48065 64.2265C3.4375 65.2187 3.63164 66.1678 3.97677 67.0882C4.27157 67.8647 4.6886 68.5766 5.27101 69.159C5.81027 69.6982 6.45739 70.1009 7.16923 70.4101C8.19024 70.8559 9.26877 70.9709 10.3545 70.9925C10.8506 70.9997 11.3683 70.9709 11.8644 70.8487C12.2527 70.748 12.6482 70.7552 13.0436 70.7696C13.4966 70.7839 13.9496 70.7768 14.3954 70.6689C15.0137 70.5179 15.6393 70.3813 16.121 69.9067C16.2433 69.7845 16.4158 69.7342 16.5956 69.7486C16.9263 69.7773 17.2427 69.7126 17.5663 69.6551C18.2925 69.5329 18.954 69.274 19.4861 68.7419C19.6802 68.5478 19.9031 68.4615 20.1691 68.4687C20.4639 68.4759 20.7659 68.4687 21.0607 68.4759C21.4706 68.4831 21.5568 68.5837 21.4706 69.0008C21.2117 70.3166 20.9457 71.6324 20.694 72.9482C20.4711 74.1274 20.2482 75.3066 20.0397 76.4858C19.86 77.4852 19.6946 78.4919 19.522 79.4913C19.4717 79.8005 19.3351 80.0449 19.0187 80.1672C18.7239 80.275 18.4507 80.4332 18.2206 80.6417C17.6526 81.1379 17.1924 81.7203 16.8329 82.389C16.0563 83.8342 15.6177 85.3657 15.4595 86.9907C15.438 87.2423 15.3733 87.4868 15.1863 87.6881C14.985 87.9038 14.8052 88.1483 14.6399 88.3856C14.1869 89.0255 13.8417 89.723 13.6476 90.4851C13.5398 90.9094 13.5254 91.3264 13.964 91.6212C14.985 92.2971 16.0563 92.8579 17.2355 93.2102C17.897 93.4116 18.5729 93.5625 19.256 93.6704C20.1332 93.8142 21.0176 93.9221 21.902 93.9508C23.2753 93.994 24.6343 93.8933 26.0004 93.7207C27.0286 93.5913 28.028 93.3756 29.0275 93.1311C30.2067 92.8363 31.3499 92.4193 32.5004 92.0095C33.018 91.8225 33.1619 91.4918 32.9749 90.9813C32.7664 90.406 32.4788 89.8668 32.0977 89.3922C31.8317 89.0615 31.7957 88.7379 31.882 88.3281C32.033 87.6306 32.0114 86.9116 31.9179 86.2141C31.731 84.8264 31.2708 83.525 30.5878 82.3027C30.1995 81.6052 29.7321 80.9581 29.1425 80.4332C28.819 80.1384 28.6895 79.8508 28.7183 79.441C28.7327 79.2612 28.7327 79.0743 28.7471 78.8873C28.8549 77.78 28.8909 76.6655 28.9556 75.5511C28.9987 74.7601 29.1138 73.9764 29.0562 73.1783C29.049 73.1208 29.0562 73.0632 29.0634 73.0057C29.1929 71.956 29.1425 70.8918 29.2216 69.8348C29.2432 69.54 29.2288 69.2381 29.2216 68.9433C29.2144 68.7276 29.3079 68.6269 29.5236 68.6341H29.7393C32.2343 68.6341 34.7221 68.6341 37.2171 68.6413C37.7133 68.6413 37.7564 68.67 37.7276 69.1805C37.6701 70.2303 37.8499 71.2657 37.8714 72.3083C37.8858 72.9554 37.9433 73.6097 37.9577 74.2568C37.9865 75.4576 38.1447 76.644 38.1519 77.8447C38.1519 78.0245 38.2238 78.2114 38.2022 78.3912C38.1591 78.7579 38.2094 79.1246 38.2597 79.4841C38.31 79.8508 38.2166 80.1169 37.9577 80.3541C37.5551 80.7136 37.1956 81.1091 36.8792 81.5477C36.0164 82.7628 35.4771 84.1218 35.1823 85.5814C34.9738 86.6312 34.8947 87.681 35.1392 88.7379C35.1895 88.9536 35.096 89.119 34.9666 89.2844C34.5424 89.8236 34.226 90.4204 33.9887 91.0604C33.8162 91.5205 33.9959 91.916 34.4633 92.067C35.4771 92.3833 36.4622 92.7644 37.4832 93.0592C39.1873 93.5482 40.9273 93.843 42.6889 93.9508C43.8968 94.0227 45.1192 94.0443 46.3343 93.9005C47.2331 93.7926 48.1247 93.6704 49.0019 93.4547C50.4759 93.0952 51.8348 92.4912 53.0716 91.614C53.352 91.4127 53.4526 91.1754 53.4239 90.8518C53.4095 90.7296 53.3735 90.6002 53.3376 90.4851C53.0212 89.5001 52.5251 88.6229 51.8564 87.8391C51.7198 87.6809 51.5688 87.5084 51.576 87.2855C51.5832 87.041 51.5185 86.8109 51.4825 86.5737C51.2668 85.1788 50.8929 83.8342 50.2099 82.5903C49.7641 81.785 49.2464 81.0228 48.4482 80.5051C48.2469 80.3757 48.0312 80.2678 47.8155 80.16C47.6214 80.0665 47.5207 79.9227 47.4848 79.707C47.3913 79.0815 47.2691 78.4559 47.1612 77.8304C46.7873 75.5726 46.3559 73.3293 45.9101 71.0787C45.7807 70.4101 45.6513 69.7486 45.5362 69.0799C45.4859 68.7851 45.5146 68.7563 45.8094 68.7491C46.1905 68.7419 46.5716 68.7491 46.9527 68.7419C47.1468 68.7419 47.3122 68.7994 47.4632 68.9217C48.1822 69.5185 49.045 69.7198 49.951 69.7557C50.2314 69.7701 50.4687 69.8276 50.6988 69.993C51.4753 70.5467 52.3669 70.7408 53.2944 70.7768C53.7187 70.7911 54.1501 70.7336 54.5671 70.7983C55.394 70.9206 56.2065 71.014 57.0477 70.9637C57.8027 70.9206 58.5361 70.8127 59.2479 70.5539C61.2324 69.8348 62.4548 68.4112 63.0516 66.4123C63.296 65.5998 63.3032 64.7729 63.3032 63.9317C63.3032 62.8891 63.1594 63.1767 64.0151 62.7237C64.0366 62.7093 64.0654 62.695 64.0942 62.6878C64.8995 62.2635 65.2518 61.4007 65.0001 60.5307C64.8204 59.9052 64.4752 59.409 63.9575 59.028C63.6987 58.841 63.6556 58.7331 63.7994 58.4959C64.1948 57.8128 64.504 57.065 64.8995 56.3604ZM56.6379 55.5191C56.8752 55.7636 56.8896 55.8714 56.7026 56.1519C56.4438 56.5473 56.149 56.8925 55.6672 57.0435C55.4731 57.1082 55.2933 57.2232 55.092 57.3239C54.9626 57.0291 55.1136 56.7774 55.1352 56.5186C55.1783 56.0296 55.2718 55.5479 55.3005 55.0518C55.3077 54.9439 55.3365 54.8289 55.3724 54.721C55.4371 54.4837 55.4731 54.4765 55.6744 54.6275C56.0267 54.8936 56.3359 55.2099 56.6379 55.5191ZM48.8725 24.8744C48.93 24.7594 48.9875 24.6443 49.0954 24.5653C49.6562 23.5083 50.217 22.4441 50.7779 21.3872L52.6545 17.828C52.8127 17.5332 52.8127 17.526 53.0859 17.6842C55.0848 18.8562 57.0981 19.9851 59.1329 21.0996C59.2336 21.1499 59.3342 21.2002 59.3989 21.3081C59.4996 21.3081 59.5931 21.3512 59.6794 21.4016C60.9808 22.1493 62.2894 22.8756 63.5621 23.6593C63.6124 23.688 63.6556 23.7168 63.7059 23.7528C63.9288 23.9109 63.936 23.9325 63.749 24.141C63.2026 24.7378 62.6633 25.3274 62.1097 25.917C60.5781 27.542 59.0466 29.167 57.5151 30.7992C57.4576 30.8639 57.4001 30.9214 57.3425 30.9861C57.2059 31.1371 57.0621 31.1659 56.8968 31.0364C56.7961 30.9574 56.6882 30.8926 56.5876 30.8136C54.0854 29.016 51.5904 27.2113 49.0307 25.4928C48.6783 25.2627 48.6783 25.2411 48.8725 24.8744ZM15.8191 17.6267C15.8047 17.5836 15.7975 17.5476 15.7903 17.5045C15.7112 17.1737 15.7112 17.1665 16.042 17.1593C16.2936 17.1593 16.5525 17.1306 16.8041 17.1737C18.1487 17.0874 19.4933 17.0731 20.8306 17.0515C24.9219 16.9868 29.0059 16.9436 33.0971 16.8789C37.3681 16.807 41.6391 16.7135 45.9101 16.6273C46.0395 16.6273 46.1618 16.6344 46.2912 16.6344C46.5644 16.5482 46.852 16.5913 47.1324 16.5769C47.456 16.5625 47.7796 16.5554 48.1103 16.541C48.5345 16.5266 48.6136 16.6057 48.5561 17.0299C48.4482 17.7993 48.326 18.5686 48.211 19.338C47.9665 21.0061 47.7292 22.667 47.4848 24.3352C47.3553 25.1836 47.4632 25.1045 46.6219 25.1189C44.1773 25.162 41.7254 25.198 39.2807 25.2339C39.1801 25.2339 39.0866 25.2196 38.9859 25.2124C38.0943 25.2268 37.2099 25.2483 36.3184 25.2627C33.7371 25.2915 31.1486 25.313 28.5673 25.3346C28.4523 25.3346 28.3444 25.3274 28.2294 25.3202C27.8267 25.4137 27.4097 25.3706 27.007 25.3777C24.4042 25.4065 21.8013 25.4784 19.1985 25.5791C18.9324 25.5863 18.6592 25.615 18.3932 25.6294C17.933 25.651 17.9258 25.651 17.8107 25.2124C17.4872 23.9541 17.1564 22.6958 16.8401 21.4303C16.5093 20.1648 16.1786 18.8922 15.8191 17.6267ZM27.0717 26.4419L33.0037 26.3125C34.4561 26.2837 35.9157 26.2621 37.3681 26.2334C37.7564 26.1543 38.1519 26.1831 38.5473 26.1759C41.0064 26.1327 43.4726 26.0968 45.9317 26.0608C46.3847 26.0536 46.8376 26.0321 47.2906 26.0249C47.7796 26.0177 47.7867 26.0177 47.7292 26.5282C47.5782 27.7649 47.4129 29.0016 47.2547 30.2311C47.2187 30.4828 47.19 30.7345 47.154 30.9861C47.0965 31.3312 47.0749 31.3456 46.7154 31.3528C45.9676 31.3672 45.2127 31.3744 44.4649 31.3888C39.8344 31.4751 35.2111 31.5541 30.5806 31.6476C27.9346 31.6979 25.2886 31.7555 22.6426 31.8202C21.4562 31.8489 20.2626 31.8849 19.0762 31.9137C18.7167 31.9208 18.6592 31.8777 18.5945 31.5326C18.3212 29.9723 18.0696 28.4048 17.746 26.8589C17.7317 26.7727 17.7245 26.6936 17.7173 26.6073C17.7029 26.4779 17.7748 26.4275 17.897 26.4275C17.9545 26.4275 18.0121 26.4275 18.0696 26.4347C20.4064 26.5713 22.736 26.4347 25.0729 26.4491C25.7415 26.4419 26.403 26.4419 27.0717 26.4419ZM0.884977 24.1123C0.705222 23.9469 0.712412 23.8822 0.928119 23.7887C1.00002 23.7528 1.0863 23.7384 1.17259 23.7168C2.38773 23.0769 3.59569 22.4441 4.81083 21.8042C6.42144 20.9558 8.03205 20.1001 9.64266 19.2445C10.0741 19.0216 10.0741 19.0216 10.3833 19.3811C11.5409 20.7185 12.7776 21.984 13.9712 23.2926C14.0862 23.4148 14.2228 23.5227 14.2875 23.688C14.9562 24.3208 15.5674 25.0039 16.1786 25.6869C16.2433 25.7588 16.308 25.8379 16.3727 25.9098C16.459 26.0105 16.459 26.1112 16.3583 26.2046C16.308 26.2478 16.2505 26.2909 16.1929 26.334C13.9784 28.0957 11.7638 29.8501 9.54919 31.6117L9.41976 31.7195C9.0962 31.964 9.0962 31.964 8.79421 31.6764C6.16979 29.1382 3.56693 26.5857 0.884977 24.1123ZM3.37998 43.6121C3.2218 43.6121 3.0708 43.6049 2.91262 43.6049C2.82634 43.6265 2.73286 43.6409 2.64658 43.6409C2.22236 43.6912 1.80532 43.7056 1.38829 43.6912C1.33796 43.5259 1.43862 43.4683 1.49615 43.3964C4.01991 40.3765 6.38549 37.2344 8.75826 34.0923C8.8805 33.9341 8.99554 33.7759 9.0962 33.6034C9.26158 33.3086 9.49885 33.2007 9.83679 33.2295C10.9369 33.3301 12.0442 33.3086 13.1443 33.3301C14.3451 33.3517 15.553 33.3229 16.7538 33.3157L27.1149 33.2942C29.3367 33.287 31.5584 33.287 33.7802 33.2726C37.7995 33.251 41.8189 33.2295 45.8382 33.1863C49.3039 33.1504 52.7696 33.0713 56.2352 33.0138C56.3072 33.0138 56.3791 33.0281 56.4438 33.0066C56.8896 32.8628 57.1053 33.1 57.3066 33.4595C59.0682 36.6592 60.8442 39.8445 62.7136 42.9794C62.7568 43.0513 62.7927 43.1304 62.8287 43.2023C62.7136 43.3101 62.5914 43.3101 62.462 43.3101L55.5881 43.3533C55.4875 43.3533 55.394 43.3317 55.2933 43.3245C54.6031 43.3389 53.9056 43.3605 53.2154 43.3677C49.836 43.3964 46.4566 43.418 43.07 43.4396H43.0268C42.581 43.4396 42.581 43.4324 42.4804 42.9866C42.128 41.4766 41.2868 40.3765 39.8056 39.8373C38.2525 39.2692 36.6347 39.7869 35.6712 41.1315C35.2326 41.7499 34.945 42.4401 34.7437 43.1663C34.6502 43.4971 34.6502 43.5043 34.3267 43.5043C33.6076 43.5115 32.8814 43.5043 32.1624 43.5187C31.9683 43.5187 31.8892 43.4539 31.846 43.267C31.7166 42.7565 31.5656 42.2604 31.3283 41.793C30.8466 40.8367 30.1635 40.0889 29.1138 39.7582C27.6685 39.3052 25.8638 39.9595 24.9506 41.2537C24.6055 41.7427 24.3754 42.2891 24.2244 42.8715C24.1885 43.0082 24.1597 43.1448 24.1166 43.2814C24.0734 43.4252 23.9728 43.5258 23.8074 43.5258C23.7211 43.5258 23.6348 43.533 23.5557 43.533H23.0884C18.954 43.5402 14.8268 43.533 10.6924 43.5474C8.24057 43.5546 5.81028 43.5906 3.37998 43.6121ZM40.9201 43.9932C40.8482 43.6697 40.7979 43.6409 40.4887 43.72C40.122 43.8135 39.7553 43.9213 39.3886 44.0148C39.3239 44.0292 39.252 44.0651 39.1585 44.0076C39.4677 43.6409 39.7625 43.2958 40.0501 42.9506C40.2514 42.7062 40.2514 42.663 39.971 42.5048C39.3382 42.1453 38.6624 42.0662 37.9649 42.2747C36.987 42.5624 36.3255 43.1879 36.0379 44.1802C35.7863 45.0717 35.7216 45.9849 35.7503 46.9124C35.7575 47.0994 35.7575 47.2791 35.7647 47.4661C35.7719 47.5739 35.7359 47.6602 35.6209 47.6962C35.5131 47.7321 35.4699 47.653 35.4268 47.5811C35.2973 47.3942 35.1967 47.2 35.1823 46.9556C35.1176 45.5751 35.2254 44.2161 35.6784 42.9003C35.8438 42.4186 36.0595 41.9584 36.3687 41.5485C37.2315 40.4197 38.6336 40.0889 39.8919 40.7504C41.0998 41.3832 41.6751 42.4329 41.7901 43.7703C41.8764 44.8489 41.6319 45.8771 41.2652 46.8837C41.1861 47.0994 41.0998 47.3079 41.0208 47.5164C40.956 47.6818 40.841 47.7177 40.6828 47.6458C40.5318 47.5811 40.4168 47.5164 40.4959 47.3007C40.69 46.8046 40.8698 46.2941 40.9704 45.762C41.0711 45.1652 41.0495 44.5756 40.9201 43.9932ZM34.3842 46.3876C34.3842 46.4379 34.341 46.4523 34.3051 46.4666C34.2044 46.4882 34.111 46.4595 34.0175 46.4307C33.471 46.2653 32.9318 46.3085 32.3997 46.5026C32.335 46.5242 32.2703 46.5673 32.1984 46.5385C32.1408 46.5026 32.1337 46.4523 32.1337 46.3947C32.1193 45.913 32.1049 45.4384 32.0977 44.9567C32.0905 44.6259 32.1121 44.6116 32.4141 44.6044C33.0037 44.59 33.6005 44.6331 34.19 44.5828C34.3339 44.5684 34.4633 44.5972 34.4417 44.7769C34.3626 45.3162 34.4058 45.8555 34.3842 46.3876ZM29.3007 42.4257C28.9052 42.246 28.481 42.2029 28.0568 42.2532C26.9279 42.3682 25.5258 43.2167 25.6193 45.0502C25.6553 45.7332 25.7919 46.3947 25.986 47.0491C26.0148 47.1569 26.0507 47.2648 26.0795 47.3726C26.1226 47.5308 26.0363 47.6099 25.8997 47.6602C25.7559 47.7106 25.6984 47.6315 25.6481 47.5164C25.1448 46.3013 24.7493 45.0717 24.8787 43.7344C24.9434 43.0657 25.1304 42.4257 25.4971 41.8577C26.2089 40.7648 27.6685 40.1824 28.819 40.5275C29.4301 40.7073 29.8903 41.0884 30.2498 41.5989C30.7747 42.3467 31.0048 43.2023 31.1558 44.0867C31.3212 45.0502 31.3427 46.028 31.3068 47.0059C31.2996 47.2072 31.278 47.4014 31.1702 47.5739C31.127 47.6386 31.0767 47.6818 31.0048 47.6818C30.9113 47.6746 30.8394 47.6243 30.825 47.5308C30.8106 47.4301 30.8106 47.3367 30.8106 47.236C30.7963 46.3444 30.8035 45.4528 30.6525 44.5684C30.5949 44.2449 30.5087 43.9357 30.3792 43.6337C30.2786 43.3964 30.2354 43.3749 29.991 43.4827C29.6243 43.6409 29.2719 43.8063 28.9124 43.9716C28.8621 43.9932 28.8118 44.0292 28.6967 43.9788C28.9268 43.5762 29.1497 43.1663 29.3942 42.7709C29.502 42.5911 29.4589 42.4977 29.3007 42.4257ZM9.91589 55.7348C10.3185 55.3322 10.6709 54.8648 11.2389 54.5413C11.3755 55.5047 11.5049 56.382 11.6343 57.2663C11.6056 57.2879 11.584 57.3023 11.5553 57.3239C11.2317 57.0938 10.8434 56.9931 10.5199 56.7846C10.2179 56.5905 10.0885 56.2381 9.90151 55.9362C9.86556 55.8643 9.86556 55.7852 9.91589 55.7348ZM3.12832 62.1054C2.45244 61.7674 2.25112 61.2282 2.50997 60.5163C2.65377 60.1137 2.91262 59.7757 3.17866 59.4378C3.28651 59.3084 3.38717 59.3084 3.47345 59.4594C3.53817 59.5672 3.60288 59.6751 3.66759 59.7901C3.7323 59.9123 3.84735 60.0346 3.81859 60.1784C3.78263 60.3294 3.61007 60.279 3.49503 60.315C3.4375 60.3366 3.39436 60.3653 3.38717 60.43C3.37998 60.5163 3.4375 60.5595 3.50941 60.5738C3.6604 60.6026 3.8114 60.6457 3.96958 60.6529C4.23562 60.6673 4.50885 60.6601 4.77488 60.6601C6.12664 60.6745 7.41369 60.4085 8.62165 59.7973C9.18249 59.5169 9.69299 59.1646 10.1244 58.7116C10.3689 58.4527 10.5918 58.1795 10.6133 57.7984C10.6277 57.6043 10.7284 57.5755 10.9081 57.633C11.5553 57.8631 11.9148 58.5318 11.7278 59.1933C11.5696 59.747 11.2317 60.1784 10.8075 60.5451C9.52042 61.638 8.03205 62.2564 6.35673 62.4505C5.81027 62.5152 5.26382 62.5799 4.71017 62.5368C4.15653 62.5008 3.63164 62.357 3.12832 62.1054ZM18.4651 68.4759C17.6957 68.9073 16.8544 68.9864 15.9988 68.9001C14.5176 68.7491 13.2162 68.2027 12.1161 67.1745C11.3539 66.4626 10.865 65.6214 10.714 64.586C10.6924 64.4494 10.7428 64.2121 10.5271 64.2265C10.3042 64.2409 10.3473 64.4781 10.3329 64.6363C10.3042 64.9814 10.3833 65.3122 10.4839 65.6358C10.6996 66.3548 11.0951 66.9731 11.6056 67.5124C12.2311 68.1739 12.943 68.7276 13.7914 69.0942C14.0718 69.2165 14.3522 69.3459 14.6902 69.4969C14.4457 69.6767 14.23 69.727 14.0071 69.7486C12.1449 69.9211 10.4408 69.5113 8.9524 68.3393C8.12552 67.685 7.5575 66.8653 7.30584 65.8371C7.29865 65.7939 7.29146 65.7508 7.27708 65.7148C7.24113 65.6142 7.17642 65.5351 7.06137 65.5495C6.94633 65.5639 6.88881 65.6358 6.88162 65.7508C6.86724 66.06 6.82409 66.3763 6.91757 66.6783C7.24832 67.7569 7.86668 68.6269 8.77983 69.2812C9.11058 69.5185 9.44852 69.7414 9.78646 69.9715C9.70018 70.144 9.57795 70.0865 9.47728 70.0793C6.66591 69.8492 4.69579 68.0804 4.17091 65.305C4.06305 64.737 3.99115 64.1618 3.99115 63.5794C3.99115 63.1911 4.01272 63.1695 4.40818 63.1983C6.50773 63.3493 8.39875 62.7381 10.1675 61.6596C10.6781 61.3504 11.131 60.9693 11.5337 60.5235C11.7853 60.2503 12.0082 59.9555 12.1233 59.6032C12.2168 59.3084 12.4181 59.1718 12.6913 59.0999C13.1083 58.9992 13.5326 58.9776 13.9568 59.0711C15.2366 59.3587 16.2289 60.0562 16.876 61.2138C17.1852 61.7674 17.2859 62.3498 17.0198 62.961C16.876 63.2846 16.5956 63.3708 16.3152 63.1623C16.2505 63.112 16.1929 63.0473 16.1354 62.9826C15.8694 62.6878 15.5458 62.5224 15.1504 62.6518C14.7621 62.7812 14.532 63.0976 14.4529 63.4931C14.2588 64.4494 15.1072 65.42 16.0851 65.3769C16.7682 65.341 17.2499 64.7298 17.1277 64.0611C17.1133 63.9892 17.0845 63.9245 17.0845 63.8526C17.0702 63.6656 17.2499 63.3421 17.4081 63.2917C17.595 63.227 17.6885 63.3852 17.8036 63.4787C18.2206 63.8382 18.616 64.2265 18.9396 64.6795C19.2488 65.1252 19.4717 65.607 19.5723 66.1463C19.7305 67.1313 19.3351 67.9798 18.4651 68.4759ZM16.2648 64.3703C16.157 64.5285 16.006 64.5788 15.8191 64.5428C15.4595 64.4709 15.1647 64.133 15.1504 63.7447C15.1576 63.6009 15.1719 63.4499 15.3445 63.3708C15.5314 63.2846 15.6393 63.4068 15.7472 63.5218C15.891 63.68 16.0276 63.8382 16.1642 64.0036C16.2505 64.1042 16.3727 64.2121 16.2648 64.3703ZM20.6724 78.8514C21.0823 76.6727 21.4993 74.4941 21.902 72.3083C21.9595 71.9991 22.0458 71.8625 22.4197 71.9488C22.7792 72.035 23.1459 72.0638 23.5054 72.1357C23.8074 72.1932 23.8361 72.222 23.7786 72.5312C23.6636 73.2142 23.527 73.8901 23.4047 74.5732C23.3041 75.1412 23.1962 75.7164 23.1099 76.2845C23.0812 76.4786 23.0884 76.6799 23.0812 76.8741C23.074 76.9891 23.1243 77.0682 23.2394 77.0898C23.3544 77.1113 23.4407 77.061 23.4838 76.9675C23.5342 76.8525 23.5701 76.7303 23.5989 76.608C23.9009 75.3138 24.1022 73.998 24.3466 72.6965C24.4185 72.3011 24.4545 72.2723 24.8428 72.3227C25.0513 72.3514 25.267 72.373 25.4683 72.4161C25.7344 72.4665 25.7703 72.5168 25.7487 72.79C25.7056 73.2574 25.6481 73.7176 25.5906 74.1849C25.4899 75.0549 25.382 75.925 25.2886 76.795C25.267 76.9747 25.2742 77.1617 25.2742 77.3486C25.2742 77.4349 25.2814 77.5284 25.3892 77.5499C25.5115 77.5787 25.5762 77.478 25.5977 77.3846C25.6481 77.2048 25.684 77.0251 25.7056 76.8453C25.8854 75.5583 26.0579 74.2712 26.2377 72.977C26.2952 72.5743 26.3312 72.5384 26.7194 72.5743C27.0717 72.6103 27.4241 72.6462 27.7692 72.7037C28.1143 72.7541 28.1143 72.7684 28.1071 73.0992V73.394H28.0999C27.9633 75.4864 27.8195 77.5715 27.6829 79.6639C27.6829 79.6926 27.6829 79.7214 27.6757 79.7501C27.6326 80.0521 27.6038 80.0737 27.3306 79.9443C26.5756 79.5848 25.7847 79.3187 24.965 79.1677C23.6348 78.9233 22.3046 78.8226 20.9672 79.1174C20.6437 79.1893 20.6149 79.1605 20.6724 78.8514ZM19.5364 84.6611C19.7665 83.41 20.0181 82.1661 20.2482 80.915C20.3201 80.5051 20.5502 80.2678 20.9313 80.1312C21.2692 80.0162 21.6144 79.9299 21.9667 79.9083C23.7858 79.7717 25.5546 79.9587 27.2227 80.7424C27.6182 80.9293 27.6326 80.9437 27.6038 81.3895C27.5175 82.6622 27.4241 83.9277 27.3306 85.2003C27.2874 85.7899 27.2587 85.8043 26.705 85.6102C25.3173 85.1284 23.8937 84.8696 22.319 84.884C21.6144 84.8696 20.8163 84.9559 20.0253 85.1284C19.4861 85.2219 19.4357 85.1788 19.5364 84.6611ZM16.2289 86.0775C16.3943 84.7905 16.7538 83.5681 17.4297 82.4537C17.8179 81.8065 18.3141 81.2529 18.9396 80.8215C19.0187 80.764 19.0978 80.6921 19.2056 80.7568C19.2919 80.8071 19.2991 80.8934 19.2775 80.9797C19.105 81.6627 19.105 82.3746 18.8605 83.0433C18.7886 83.8054 18.5945 84.5388 18.4579 85.2866C18.4219 85.4879 18.3069 85.6102 18.1271 85.6893C17.6813 85.8978 17.2355 86.1135 16.7969 86.322C16.6531 86.4874 16.4806 86.7318 16.2577 86.6312C16.0923 86.5521 16.2001 86.2645 16.2289 86.0775ZM15.402 89.0183C16.0851 88.0836 16.9839 87.4077 18.0049 86.9044C19.8312 86.0056 21.7654 85.754 23.7786 85.9984C23.8146 86.0056 23.8505 86.0344 23.8865 86.056C25.2239 86.1279 26.4462 86.5952 27.647 87.1345C28.5385 87.5371 29.351 88.0836 30.106 88.702C30.2067 88.7811 30.3001 88.8673 30.3936 88.9536C30.5302 89.0759 30.5087 89.1981 30.3792 89.3131C30.1707 89.5073 29.9334 89.6655 29.689 89.8021C29.0203 90.1903 28.2869 90.3917 27.5463 90.5642C25.9501 90.9309 24.3251 90.9453 22.7001 90.8878C22.5203 90.8806 22.3406 90.8303 22.1608 90.8015C21.4778 90.8878 20.8091 90.708 20.1476 90.6074C18.6232 90.3845 17.1421 89.9746 15.6681 89.536C15.6393 89.5288 15.6105 89.5216 15.589 89.5145C15.1647 89.385 15.1504 89.3635 15.402 89.0183ZM31.9467 90.6361C32.1193 90.8662 32.1121 90.9165 31.846 91.046C31.314 91.3192 30.7531 91.5061 30.1923 91.7075C28.7183 92.2252 27.2012 92.5487 25.6553 92.7644C25.4611 92.7932 25.2598 92.786 25.0657 92.8004C24.8859 92.9154 24.6846 92.8867 24.4905 92.8939C21.2333 93.1168 18.0912 92.6422 15.0928 91.3336C14.3954 91.0316 14.3954 91.0172 14.6758 90.3054C14.9418 89.6367 14.9418 89.6367 15.6033 89.9387C16.9048 90.5427 18.2925 90.8878 19.6946 91.1682C21.5209 91.5277 23.3616 91.6571 25.2239 91.5996C25.3892 91.5924 25.5618 91.614 25.7344 91.614C26.3383 91.4558 26.9711 91.4846 27.5822 91.348C28.3732 91.1682 29.1425 90.9597 29.8687 90.5858C30.2354 90.3917 30.5662 90.1544 30.8682 89.8812C31.127 89.6511 31.1342 89.6511 31.3643 89.9171C31.5584 90.1544 31.7526 90.3917 31.9467 90.6361ZM28.9268 81.3536C29.2144 81.6268 29.4661 81.936 29.6674 82.2739C30.7028 83.9924 31.2564 85.8475 31.2708 87.8607V87.947C31.2564 88.0692 31.314 88.2202 31.1486 88.2777C31.0192 88.3209 30.9545 88.1986 30.8754 88.1196C30.7675 88.0117 30.6237 87.9326 30.5662 87.7816C29.8831 87.2567 29.1569 86.7894 28.4379 86.3148C28.2725 86.2717 28.2725 86.1423 28.2797 86.0128C28.2941 85.7324 28.3228 85.452 28.3372 85.1644C28.4019 84.0068 28.4666 82.8491 28.5314 81.6987C28.5385 81.6268 28.5385 81.5549 28.5385 81.4902C28.5457 81.3895 28.5314 81.2745 28.632 81.2241C28.7686 81.1594 28.8477 81.2817 28.9268 81.3536ZM35.6569 87.7169C35.7072 85.6964 36.268 83.827 37.3825 82.1373C37.5766 81.8425 37.7995 81.5693 38.0656 81.332C38.1303 81.2745 38.195 81.2098 38.2885 81.2457C38.3819 81.2817 38.3748 81.3823 38.382 81.4614C38.4395 82.2595 38.5114 83.0648 38.4898 83.8701C38.5761 84.3016 38.5617 84.7402 38.5617 85.1716C38.5617 85.4376 38.5689 85.7036 38.612 85.9697C38.648 86.1854 38.5833 86.3723 38.382 86.4658C37.6126 86.8325 36.9799 87.4005 36.2824 87.8679C36.1602 88.0764 35.9948 88.364 35.7863 88.3137C35.5202 88.2562 35.6497 87.9182 35.6569 87.7169ZM52.0649 89.9459C52.1728 90.2047 52.2878 90.4636 52.3741 90.7368C52.4748 91.0316 52.4388 91.1035 52.1512 91.2329C51.4034 91.5709 50.6413 91.8585 49.8575 92.1101C47.7508 92.786 45.5865 93.0377 43.3791 92.9586C43.0196 92.9442 42.6457 93.0161 42.2934 92.8795C39.8128 92.7429 37.4544 92.1173 35.1751 91.1538C35.1248 91.1323 35.0744 91.1035 35.0241 91.0819C34.8659 91.0028 34.8156 90.8878 34.9306 90.744C35.1751 90.4348 35.434 90.1328 35.6856 89.8308C35.8007 89.7014 35.9085 89.7445 36.0092 89.8524C36.2321 90.0753 36.4693 90.2694 36.7354 90.4348C37.4832 90.9237 38.3172 91.161 39.1801 91.3552C40.539 91.6571 41.9195 91.6931 43.3072 91.6859C43.4367 91.5996 43.5805 91.6212 43.7171 91.6212C46.0683 91.5565 48.3476 91.1107 50.555 90.3198C50.9361 90.1831 51.31 89.9962 51.6767 89.8164C51.8708 89.7014 51.9858 89.7517 52.0649 89.9459ZM47.873 80.7999C48.1103 80.9221 48.3188 81.0947 48.5202 81.2745C49.1529 81.8641 49.5987 82.5687 49.951 83.3524C50.3608 84.2728 50.6053 85.2363 50.7204 86.2429C50.7347 86.358 50.7347 86.4658 50.7275 86.5808C50.7275 86.6168 50.706 86.6599 50.6844 86.7103C50.404 86.7175 50.2746 86.4874 50.102 86.3436C49.649 86.1279 49.196 85.905 48.7359 85.6893C48.5417 85.603 48.4914 85.4376 48.4554 85.2507C48.2829 84.3663 48.0815 83.4891 47.9881 82.5903C47.7867 82.0582 47.7724 81.4902 47.6573 80.9365C47.6142 80.7783 47.7148 80.7208 47.873 80.7999ZM50.4615 87.9326C50.8426 88.2562 51.1877 88.6085 51.4897 89.004C51.7773 89.3707 51.7557 89.4426 51.3171 89.572C50.1811 89.9171 49.0378 90.2263 47.873 90.4708C46.9167 90.6721 45.9461 90.7871 44.9754 90.895C44.7093 90.9237 44.4361 90.9381 44.1701 90.895C43.7099 91.0028 43.2497 91.0028 42.7824 90.9885C41.3515 90.9381 39.935 90.8159 38.5617 90.3989C37.893 90.1975 37.2603 89.9315 36.7138 89.4857C36.3543 89.1909 36.3471 89.1406 36.6922 88.853C38.3604 87.4509 40.273 86.5737 42.4085 86.1566C43.3576 85.9697 44.3139 85.9625 45.2774 85.9841C45.4212 85.9841 45.5578 86.0272 45.6872 86.0775C45.8957 86.0344 46.1114 86.0344 46.3199 86.0775C47.8371 86.3939 49.2536 86.9188 50.4615 87.9326ZM46.8017 81.4974C46.9671 82.5759 47.19 83.6401 47.3913 84.7114C47.4057 84.7977 47.4272 84.8768 47.4344 84.9631C47.4488 85.1859 47.3913 85.2435 47.1612 85.2075C46.8808 85.1644 46.6076 85.0997 46.3271 85.0493C44.2707 84.7042 42.2719 84.9487 40.3089 85.603C39.6834 85.8115 39.669 85.9769 39.5971 85.15C39.518 84.2081 39.4677 83.259 39.3958 82.3171C39.367 81.9072 39.3311 81.4974 39.2951 81.0875C39.252 80.8718 39.3598 80.7424 39.554 80.6633C41.3587 79.9371 43.2138 79.6135 45.1551 79.9802C45.3493 80.0162 45.5362 80.0881 45.7232 80.16C46.3559 80.3829 46.701 80.8143 46.8017 81.4974ZM46.248 78.801C46.2552 78.8586 46.2768 78.9089 46.2768 78.9664C46.284 79.1174 46.248 79.2181 46.0611 79.1534C45.7232 79.0383 45.3852 78.9592 45.0329 78.9161C43.1131 78.6788 41.2868 78.9592 39.5827 79.9083C39.2951 80.0665 39.2592 80.0521 39.2376 79.7214C39.1225 78.0533 39.0147 76.3923 38.8996 74.7242C38.8709 74.3 38.8421 73.8757 38.8134 73.4731C38.8062 72.8188 38.648 72.7469 39.4677 72.7037C39.7193 72.6894 39.971 72.639 40.2226 72.6103C40.5462 72.5743 40.6253 72.6246 40.6684 72.9554C40.8194 74.0195 40.9632 75.0837 41.107 76.1478C41.1574 76.5002 41.2077 76.8453 41.2652 77.1976C41.2796 77.2839 41.3012 77.363 41.3299 77.4421C41.3587 77.5284 41.4162 77.5859 41.5169 77.5787C41.6247 77.5715 41.6463 77.478 41.6463 77.3918C41.6463 77.3055 41.6391 77.2192 41.6319 77.1401C41.5528 75.9106 41.3659 74.6954 41.2365 73.4731C41.2077 73.2358 41.1861 72.9913 41.1718 72.7541C41.1574 72.5887 41.2293 72.488 41.409 72.4736C41.6463 72.4449 41.8836 72.4018 42.1209 72.3658C42.4444 72.3155 42.4948 72.3442 42.5523 72.6534C42.6673 73.279 42.7752 73.9045 42.8974 74.53C43.0196 75.17 43.1419 75.8099 43.2713 76.4426C43.3072 76.6224 43.372 76.795 43.4295 76.9675C43.4654 77.0754 43.5373 77.1761 43.6811 77.1401C43.8177 77.1113 43.8537 76.9963 43.8537 76.8813C43.8537 76.7374 43.8465 76.6008 43.8249 76.457C43.6811 75.3929 43.4726 74.3359 43.2785 73.2861C43.2282 73.0345 43.1778 72.79 43.1419 72.5384C43.1059 72.2723 43.1491 72.2148 43.4151 72.1645C43.8178 72.0926 44.2204 72.0279 44.6302 71.9775C44.8747 71.9488 44.9466 72.0063 45.0041 72.2651C45.0976 72.7109 45.1767 73.1567 45.2558 73.5953C45.5865 75.3354 45.9173 77.0682 46.248 78.801ZM46.2696 67.0019C46.2768 67.2823 46.2768 67.2895 46.0036 67.2895C44.1341 67.2967 42.2647 67.3039 40.4024 67.3183C36.4262 67.347 32.45 67.3686 28.4738 67.4045C25.9573 67.4261 23.4335 67.4621 20.9169 67.4908H20.579C20.4352 67.4908 20.3776 67.4333 20.4064 67.2823C20.6581 65.8946 20.09 64.7657 19.2416 63.7447C18.9324 63.3708 18.5585 63.0617 18.1415 62.8244C17.7964 62.6302 17.631 62.3714 17.6597 61.9688C17.6885 61.4295 17.5016 60.9405 17.2211 60.4876C16.6387 59.5313 15.8119 58.877 14.7549 58.5103C14.647 58.4743 14.5464 58.424 14.4385 58.388C14.0862 58.3449 13.7339 58.2945 13.3816 58.3233C13.1443 58.3449 13.058 58.237 13.0292 58.0213C12.9717 57.5324 12.8926 57.0434 12.8207 56.5545C12.4253 53.8294 12.037 51.0971 11.6415 48.3721C11.4905 47.3223 11.3324 46.2725 11.1886 45.2227C11.1238 44.7482 11.131 44.741 11.5912 44.741L15.7903 44.7194C17.8107 44.7122 19.8384 44.705 21.8588 44.6907C22.4772 44.6835 23.1027 44.6547 23.7211 44.6691C23.944 44.6763 24.0662 44.7554 24.0806 44.9855C24.1453 45.8986 24.4905 46.7399 24.7565 47.6027C24.814 47.7034 24.8715 47.7968 24.9147 47.8975C24.9938 48.0844 24.9794 48.2426 24.7996 48.3792C24.5624 48.559 24.3754 48.7819 24.2604 49.0623C24.2819 49.127 24.2891 49.1917 24.361 49.2205C25.2023 48.559 26.1802 48.2714 27.2155 48.1204C28.2653 47.9694 29.3223 47.8975 30.3864 47.9119C30.4871 47.9119 30.5878 47.9119 30.6812 47.9191C30.9473 47.9478 30.9545 47.9622 30.9257 48.2354C30.8466 48.9113 30.8754 49.0983 31.1198 49.5441C31.2493 49.4218 31.2133 49.2564 31.2349 49.1055C31.3427 48.4368 31.6303 47.8687 32.2127 47.4877C33.0899 46.9124 34.2188 47.0922 34.8803 47.9047C35.1248 48.2067 35.283 48.5518 35.3908 48.9185C35.4196 49.012 35.4196 49.1126 35.5202 49.2061C35.7 48.9041 35.6856 48.6021 35.6569 48.3002C35.6209 47.9263 35.6209 47.9263 35.9948 47.9191C37.2531 47.8903 38.5114 47.9478 39.7553 48.1779C40.6684 48.3505 41.5241 48.6525 42.279 49.2205L42.3869 49.1126C42.2862 48.7963 42.0561 48.5734 41.8261 48.3505C41.6607 48.1851 41.6247 48.0269 41.7757 47.84C42.049 47.0203 42.3581 46.2222 42.5019 45.3665C42.5163 45.2946 42.5307 45.2299 42.5379 45.158C42.6098 44.475 42.6026 44.5972 43.1634 44.5972C45.1983 44.59 47.2331 44.5972 49.2751 44.5972C51.1733 44.5972 53.0644 44.5828 54.9626 44.5756H55.1783C55.6672 44.5828 55.6672 44.5972 55.5881 45.0861C55.3149 46.819 55.0489 48.5518 54.7972 50.2847C54.5096 52.2691 54.2364 54.2608 53.9631 56.2453C53.8769 56.8637 53.7978 57.4749 53.7115 58.0932C53.6971 58.2155 53.6683 58.3161 53.5102 58.3017C52.8055 58.2514 52.1368 58.4312 51.4825 58.6684C51.0655 58.9345 50.6341 59.1789 50.2818 59.5313C49.5484 60.2503 49.045 61.0772 49.0738 62.1485C49.081 62.4433 48.93 62.6159 48.6927 62.7597C47.9953 63.1695 47.4416 63.7304 47.003 64.399C46.4781 65.1828 46.2409 66.0528 46.2696 67.0019ZM61.8077 67.3614C60.8873 68.8929 59.5284 69.7557 57.7668 70.0074C57.6302 70.029 57.4864 70.0577 57.3497 70.0721C57.2059 70.0937 57.2059 70.0937 56.9543 70.0002C57.0046 69.8492 57.1628 69.8205 57.2778 69.7486C57.9897 69.2956 58.644 68.7994 59.1401 68.102C59.514 67.5699 59.7585 66.9947 59.8879 66.362C59.931 66.1463 59.8735 65.9377 59.8519 65.7292C59.8375 65.6286 59.7872 65.5279 59.6722 65.5279C59.5571 65.5279 59.5068 65.6286 59.478 65.722C59.4493 65.8011 59.4277 65.8874 59.4061 65.9665C59.1832 66.815 58.7303 67.5196 58.0759 68.0948C56.5372 69.4466 54.7325 69.9283 52.7192 69.7414C52.5035 69.7198 52.2878 69.6551 52.0434 69.5041C52.446 69.3172 52.8055 69.1661 53.1506 68.9936C54.1573 68.4975 54.9985 67.7928 55.6457 66.8653C56.0771 66.2541 56.3503 65.5782 56.4078 64.8233C56.4222 64.6579 56.4222 64.4853 56.3575 64.3199C56.3287 64.248 56.2784 64.1905 56.1993 64.1977C56.1274 64.2049 56.0771 64.2552 56.0555 64.3343C56.0411 64.4206 56.0124 64.4997 56.0052 64.586C55.8973 65.6933 55.3149 66.5345 54.5168 67.2607C53.1219 68.5118 51.4753 69.0152 49.6274 68.8929C49.0378 68.8498 48.4914 68.6628 48.0168 68.3033C47.2906 67.7569 47.0174 67.0235 47.1828 66.1319C47.3338 65.3122 47.7867 64.6435 48.3476 64.0467C48.5633 63.8238 48.7934 63.6153 49.0307 63.4068C49.2536 63.2127 49.3686 63.2342 49.5484 63.4715C49.6634 63.6297 49.685 63.7951 49.6562 63.9892C49.498 64.9167 50.217 65.5639 51.123 65.3266C51.8348 65.1396 52.3669 64.4134 52.3382 63.6728C52.3238 63.2774 52.1368 62.9682 51.8205 62.7453C51.5113 62.5224 51.0871 62.5655 50.7635 62.8388C50.6484 62.9394 50.555 63.0688 50.4327 63.1623C50.1739 63.3636 49.8791 63.2702 49.7497 62.9754C49.5052 62.4361 49.534 61.904 49.8 61.3792C50.5622 59.8908 51.7773 59.0998 53.4454 59.0136C53.6396 59.0064 53.8409 59.028 54.035 59.0783C54.3083 59.1502 54.524 59.3012 54.6246 59.5744C54.8547 60.1784 55.2718 60.6314 55.7535 61.034C57.17 62.1916 58.8022 62.846 60.5997 63.1336C61.1893 63.227 61.7789 63.2342 62.3757 63.1839C62.6849 63.1551 62.7568 63.2055 62.7496 63.4859C62.7208 64.852 62.5267 66.175 61.8077 67.3614ZM50.5694 63.9964C50.7132 63.8238 50.857 63.6513 51.008 63.4859C51.1014 63.378 51.2165 63.2917 51.3747 63.3565C51.5472 63.4284 51.5832 63.5722 51.576 63.7088C51.576 64.1114 51.2668 64.4781 50.9001 64.5357C50.7204 64.5644 50.5622 64.5213 50.4615 64.3631C50.368 64.2193 50.4759 64.1042 50.5694 63.9964ZM64.3027 60.8327C64.389 61.2785 64.2308 61.638 63.8856 61.9184C63.6987 62.0694 63.483 62.1845 63.2529 62.2635C62.4045 62.5512 61.5488 62.6087 60.6572 62.4864C59.8447 62.3786 59.0394 62.2348 58.2629 61.9472C57.2922 61.5877 56.4438 61.0484 55.696 60.3294C55.3437 59.9914 55.0704 59.596 54.9626 59.107C54.8044 58.3736 55.1639 57.9638 55.811 57.633C55.9692 57.554 56.0555 57.6187 56.0771 57.7769C56.1777 58.3664 56.5804 58.7475 57.0118 59.0999C57.8818 59.8189 58.9028 60.2215 59.9885 60.466C60.8873 60.6745 61.8077 60.7033 62.728 60.6529C62.8718 60.6457 63.0084 60.6098 63.145 60.5882C63.2313 60.5738 63.3176 60.5523 63.3248 60.4444C63.332 60.3366 63.2529 60.3078 63.1594 60.2934C63.0731 60.279 62.9869 60.279 62.8862 60.1928C62.9509 59.862 63.1379 59.5816 63.3895 59.2652C63.8209 59.7685 64.1876 60.2287 64.3027 60.8327Z" fill="#676666"/>
<path d="M37.6054 52.1901C37.4832 52.7581 37.7636 53.1679 38.0584 53.585C37.9505 53.7144 37.8355 53.8079 37.6917 53.887C37.2459 54.1314 36.8001 54.3831 36.3327 54.5844C34.039 55.5838 31.7238 55.7492 29.387 54.721C29.0418 54.57 28.6823 54.4334 28.33 54.2896C28.2653 54.2968 28.2078 54.304 28.1431 54.3112C28.33 54.5413 28.5673 54.721 28.7974 54.908C30.4008 56.1806 32.2055 56.6336 34.2116 56.1734C35.6928 55.8283 37.0086 55.1884 37.9649 53.9589C38.1518 53.7144 38.195 53.7144 38.4538 53.8941C38.7486 54.0883 39.065 54.1746 39.4101 54.2033C39.4964 54.2105 39.6115 54.2465 39.6474 54.0811C38.7918 53.6497 38.0728 53.0601 37.6054 52.1901Z" fill="#6F5643"/>
<mask id="mask0_3_292" style="mask-type:luminance" maskUnits="userSpaceOnUse" x="29" y="4" width="31" height="28">
<path d="M59.4668 19.4088L37.9937 31.5544L29.7702 17.0157L51.2433 4.87L59.4668 19.4088Z" fill="white"/>
</mask>
<g mask="url(#mask0_3_292)">
<path d="M53.5069 17.6266C53.4017 17.7225 53.2699 17.7926 53.1427 17.8609C51.7482 18.6105 50.3569 19.3696 48.9533 20.103C47.3983 20.9158 45.831 21.7049 44.2691 22.5044L44.2579 22.4847C43.8758 22.6437 43.4953 22.8064 43.1104 22.9587C43.0158 22.9971 42.9074 22.957 42.8606 22.8661C42.8122 22.7782 42.8115 22.6653 42.8951 22.5996C43.0858 22.4499 43.28 22.3003 43.4879 22.1778C44.5154 21.5707 45.5495 20.9743 46.5805 20.3729C48.6015 19.1937 50.6733 18.1073 52.7405 17.0124C52.8459 16.9531 52.958 16.9064 53.0743 16.8732C53.27 16.8221 53.4755 16.9104 53.5732 17.0875C53.6674 17.248 53.65 17.4974 53.5069 17.6266ZM50.8295 14.0491C50.0171 14.4913 49.2062 14.9367 48.3862 15.3641C46.8968 16.1408 45.4079 16.9188 43.9057 17.67C42.9914 18.1272 42.0529 18.5362 41.1236 18.9633C40.9908 19.023 40.8518 19.0682 40.7092 19.0979C40.6154 19.118 40.5151 19.0945 40.4596 18.9955C40.3853 18.8642 40.4503 18.7599 40.5426 18.6765C40.6136 18.6124 40.7025 18.5671 40.7861 18.5172C41.2876 18.218 41.7804 17.9028 42.293 17.6241C44.3233 16.516 46.3857 15.47 48.4603 14.4475C49.1354 14.1101 49.8075 13.7665 50.4872 13.4379C50.8214 13.2764 51.0359 13.3058 51.1411 13.4876C51.2497 13.6764 51.1453 13.8775 50.8295 14.0491Z" fill="#FDF8E3"/>
<path d="M58.4051 19.9577C58.2565 20.0807 58.0848 20.1786 57.9152 20.2727C57.6812 20.403 57.438 20.5167 57.2006 20.6413C55.8845 21.3308 54.5689 22.0209 53.2538 22.7116C52.1536 23.2903 51.0549 23.8707 49.9576 24.4529C48.7749 25.0819 47.5958 25.7181 46.4133 26.348C45.3169 26.9321 44.219 27.5136 43.1197 28.0924C41.8902 28.7375 40.6614 29.3847 39.4225 30.0112C38.9448 30.2525 38.4434 30.4486 37.9458 30.6472C37.6009 30.7848 37.3044 30.5532 37.3543 30.1784C37.3827 29.9649 37.463 29.7533 37.5482 29.5534C37.899 28.7231 38.249 27.8923 38.6205 27.0712C38.9719 26.2943 39.3388 25.5246 39.7212 24.7623C39.8457 24.5129 39.8273 24.316 39.6838 24.0861C39.3365 23.5292 38.9945 22.9672 38.6755 22.3931C38.0726 21.3079 37.4833 20.215 36.8958 19.1213C36.2277 17.8771 35.5626 16.6314 34.9073 15.3805C34.6449 14.8794 34.7137 14.5789 35.1729 14.2477C35.6064 13.9347 36.0503 13.6327 36.5097 13.3601C37.5779 12.7266 38.6563 12.1107 39.7337 11.4932C41.2974 10.597 42.8658 9.70968 44.4282 8.81189C46.2228 7.78021 48.0158 6.74628 49.8012 5.69928C50.0793 5.536 50.3567 5.40719 50.6707 5.33999C51.2391 5.21877 51.4843 5.3087 51.7568 5.80064C52.205 6.60996 52.6414 7.42565 53.0837 8.2383C53.8513 9.64865 54.6264 11.0576 55.3877 12.4725C56.2304 14.0373 57.0621 15.6078 57.7518 16.9001C58.1434 17.7611 58.4142 18.3335 58.6648 18.9148C58.843 19.3286 58.7549 19.6684 58.4051 19.9577ZM51.1407 13.4877C51.0355 13.3058 50.821 13.2765 50.4868 13.438C49.8074 13.7664 49.1353 14.1099 48.4599 14.4475C46.3852 15.4698 44.3228 16.5158 42.2926 17.6242C41.7804 17.9037 41.2875 18.2186 40.7857 18.5173C40.7021 18.5671 40.6132 18.6125 40.5422 18.6766C40.4498 18.76 40.3853 18.864 40.4592 18.9955C40.5148 19.0939 40.615 19.1181 40.7088 19.098C40.8515 19.0685 40.9906 19.0235 41.1235 18.964C42.0532 18.5376 42.9913 18.1278 43.9057 17.6707C45.4079 16.9194 46.8968 16.1414 48.3861 15.3648C49.2061 14.9373 50.017 14.4919 50.8295 14.0498C51.1454 13.8776 51.2498 13.6764 51.1407 13.4877ZM53.574 17.0864C53.4762 16.9093 53.2708 16.821 53.075 16.8721C52.9587 16.9053 52.8467 16.952 52.7412 17.0113C50.6741 18.1062 48.6023 19.1926 46.5813 20.3718C45.5502 20.9732 44.5166 21.5703 43.4886 22.1767C43.2801 22.2996 43.086 22.4491 42.8959 22.5985C42.8122 22.6642 42.8129 22.7771 42.8614 22.865C42.9082 22.9559 43.0165 22.996 43.1112 22.9576C43.4961 22.8053 43.8766 22.6426 44.2587 22.4836L44.2698 22.5033C45.8317 21.7038 47.3985 20.9155 48.954 20.1019C50.3577 19.3685 51.7483 18.6097 53.1435 17.8598C53.2706 17.7916 53.4028 17.7212 53.5077 17.6255C53.6501 17.4974 53.6675 17.2481 53.574 17.0864Z" fill="#DBA9A6"/>
</g>
<mask id="mask1_3_292" style="mask-type:luminance" maskUnits="userSpaceOnUse" x="7" y="3" width="26" height="25">
<path d="M7.83311 14.1159L23.4849 27.5813L32.6019 16.984L16.9502 3.51853L7.83311 14.1159Z" fill="white"/>
</mask>
<g mask="url(#mask1_3_292)">
<path d="M13.0157 13.6229C13.0865 13.7187 13.1833 13.7977 13.2765 13.8745C14.2994 14.7168 15.318 15.5664 16.351 16.3969C17.4953 17.3172 18.6536 18.2201 19.8057 19.1306L19.818 19.1163C20.1059 19.309 20.3918 19.5045 20.683 19.6921C20.7544 19.7391 20.8499 19.7238 20.9031 19.6568C20.9572 19.5925 20.9761 19.4999 20.9182 19.4324C20.786 19.2784 20.6509 19.1241 20.5002 18.9896C19.7555 18.324 19.0036 17.6661 18.255 17.0046C16.7877 15.7076 15.2637 14.4786 13.7449 13.2433C13.6679 13.1775 13.5836 13.121 13.4935 13.0748C13.3411 13.001 13.1581 13.04 13.049 13.1695C12.9456 13.2859 12.9193 13.4935 13.0157 13.6229ZM15.7959 11.1216C16.3909 11.6168 16.9841 12.1144 17.5877 12.5988C18.684 13.4788 19.7797 14.3598 20.8907 15.2209C21.567 15.7451 22.2709 16.2336 22.9642 16.7355C23.0636 16.8061 23.1703 16.8658 23.2825 16.9134C23.3563 16.9452 23.4425 16.9422 23.5041 16.8699C23.5865 16.7742 23.5501 16.678 23.4879 16.5945C23.44 16.5304 23.3744 16.4787 23.3139 16.4242C22.9509 16.0969 22.5976 15.758 22.2222 15.4457C20.7357 14.2056 19.2128 13.0113 17.6761 11.8342C17.1768 11.4474 16.681 11.056 16.1764 10.6756C15.9283 10.4886 15.7474 10.4778 15.6315 10.6099C15.5116 10.7472 15.5646 10.9294 15.7959 11.1216Z" fill="#FDF8E3"/>
<path d="M8.61517 14.7393C8.71717 14.8645 8.84219 14.9728 8.96614 15.0777C9.13699 15.2227 9.3182 15.3557 9.49278 15.4966C10.461 16.2768 11.4288 17.0575 12.396 17.8385C13.205 18.4926 14.0126 19.1479 14.8186 19.8044C15.6872 20.5132 16.5517 21.2275 17.4199 21.937C18.2249 22.5949 19.0316 23.251 19.8399 23.9051C20.7443 24.6347 21.6477 25.366 22.5629 26.0819C22.9157 26.3578 23.2954 26.6003 23.6717 26.8444C23.9324 27.0135 24.2135 26.8716 24.2335 26.5558C24.2449 26.3759 24.2135 26.1891 24.1761 26.0111C24.0232 25.2725 23.8711 24.5335 23.6997 23.7989C23.5377 23.1039 23.3617 22.4124 23.1718 21.7242C23.1102 21.4993 23.1574 21.3406 23.3126 21.1753C23.6883 20.7745 24.0605 20.3688 24.4158 19.9495C25.0874 19.1567 25.749 18.3554 26.4093 17.5531C27.1603 16.6404 27.909 15.726 28.6506 14.8057C28.9475 14.4371 28.94 14.1792 28.6168 13.8325C28.3119 13.505 27.9967 13.1849 27.6639 12.8863C26.8901 12.1924 26.105 11.5113 25.3209 10.829C24.1831 9.83882 23.0399 8.85512 21.9034 7.86381C20.598 6.72481 19.2943 5.58421 17.9989 4.43412C17.7972 4.25482 17.5905 4.10394 17.3436 3.99768C16.8967 3.80565 16.6808 3.83958 16.377 4.19909C15.8774 4.79056 15.3863 5.38917 14.891 5.98435C14.0313 7.01725 13.1657 8.04779 12.3105 9.08546C11.364 10.2329 10.4256 11.3869 9.64915 12.3356C9.1875 12.9787 8.87204 13.4045 8.57174 13.8409C8.35808 14.1517 8.37514 14.445 8.61517 14.7393ZM15.6318 10.61C15.7477 10.4778 15.9287 10.4887 16.1767 10.6756C16.681 11.0558 17.1768 11.4472 17.6764 11.8343C19.2133 13.0112 20.7362 14.2055 22.2225 15.4458C22.5975 15.7586 22.9509 16.0974 23.3143 16.4242C23.3747 16.4787 23.4403 16.5304 23.4882 16.5946C23.5504 16.6781 23.5865 16.774 23.5045 16.87C23.4428 16.9417 23.3566 16.9452 23.2828 16.9134C23.1705 16.866 23.0637 16.8065 22.9642 16.7359C22.2703 16.2346 21.5669 15.7456 20.8907 15.2214C19.7797 14.3603 18.684 13.4793 17.5877 12.5993C16.9841 12.1149 16.3909 11.6173 15.7959 11.1221C15.5645 10.9293 15.5115 10.7472 15.6318 10.61ZM13.0486 13.1684C13.1577 13.0389 13.3407 12.9999 13.4931 13.0737C13.5831 13.1199 13.6675 13.1764 13.7444 13.2423C15.2633 14.4776 16.7873 15.7065 18.2546 17.0036C19.0031 17.665 19.7545 18.3235 20.4997 18.9885C20.6509 19.1233 20.786 19.2777 20.9177 19.4313C20.9757 19.4988 20.9567 19.5914 20.9026 19.6557C20.8495 19.7227 20.754 19.738 20.6825 19.691C20.3913 19.5034 20.1054 19.3079 19.8176 19.1152L19.8053 19.1295C18.6531 18.219 17.4952 17.3169 16.3506 16.3958C15.3176 15.5653 14.2994 14.7161 13.2761 13.8734C13.1829 13.7967 13.0858 13.7174 13.0153 13.6218C12.9192 13.4934 12.9455 13.2859 13.0486 13.1684Z" fill="#DBA9A6"/>
</g>
<mask id="mask2_3_292" style="mask-type:luminance" maskUnits="userSpaceOnUse" x="27" y="0" width="14" height="14">
<path d="M34.7886 6.97021e-05L27.7129 8.71985L33.6168 13.5106L40.6925 4.79085L34.7886 6.97021e-05Z" fill="white"/>
</mask>
<g mask="url(#mask2_3_292)">
<path d="M35.1377 2.80985C35.0867 2.84985 35.0453 2.9037 35.005 2.9556C34.5631 3.52487 34.1171 4.09192 33.6817 4.66651C33.1993 5.303 32.7266 5.94682 32.2496 6.58742L32.2576 6.59391C32.1573 6.7534 32.0555 6.91188 31.958 7.07313C31.9336 7.11271 31.9435 7.16438 31.9807 7.19225C32.0165 7.22064 32.0671 7.2295 32.1029 7.19694C32.1846 7.12266 32.2664 7.04682 32.3371 6.96277C32.6873 6.5475 33.0332 6.12843 33.3811 5.71112C34.0633 4.89315 34.7076 4.04539 35.3554 3.20034C35.39 3.15748 35.4195 3.11073 35.4432 3.06103C35.4809 2.97703 35.4568 2.87815 35.3847 2.82088C35.3198 2.76646 35.2065 2.75542 35.1377 2.80985ZM36.541 4.2822C36.2811 4.61344 36.0198 4.94372 35.766 5.27946C35.3047 5.88923 34.8429 6.49869 34.3921 7.11615C34.1177 7.492 33.8631 7.88232 33.6011 8.26712C33.5643 8.32222 33.5335 8.38117 33.5094 8.44292C33.4933 8.48353 33.4962 8.53034 33.5365 8.56274C33.5898 8.606 33.6415 8.58474 33.6859 8.5496C33.7201 8.52256 33.7471 8.48608 33.7758 8.45236C33.9481 8.24989 34.1268 8.05252 34.2907 7.84352C34.9417 7.016 35.5671 6.16939 36.183 5.31552C36.3855 5.03804 36.5905 4.76234 36.7894 4.48209C36.8872 4.3443 36.8903 4.24578 36.8166 4.18481C36.7401 4.12179 36.6419 4.15345 36.541 4.2822Z" fill="#FDF8E3"/>
<path d="M34.462 0.435013C34.3955 0.492421 34.3386 0.562081 34.2835 0.631111C34.2073 0.726261 34.1379 0.826859 34.064 0.923969C33.655 1.46257 33.2457 2.0009 32.8362 2.53896C32.4933 2.98902 32.1497 3.43829 31.8053 3.88679C31.4336 4.37009 31.0588 4.85122 30.6866 5.33434C30.3415 5.78229 29.9975 6.23109 29.6545 6.68076C29.272 7.18385 28.8886 7.68644 28.5136 8.19517C28.3692 8.39131 28.2433 8.60155 28.1165 8.8099C28.0286 8.95427 28.1102 9.10487 28.2822 9.11082C28.3801 9.11424 28.4812 9.0942 28.5774 9.07109C28.9766 8.97642 29.376 8.88217 29.7726 8.77751C30.1479 8.67854 30.5211 8.57206 30.8923 8.45806C31.0136 8.42107 31.1006 8.44421 31.1929 8.526C31.4166 8.72399 31.643 8.92003 31.8766 9.10661C32.3181 9.45931 32.7641 9.8065 33.2106 10.1529C33.7185 10.5469 34.2273 10.9397 34.7393 11.3284C34.9443 11.4841 35.0844 11.476 35.2678 11.2949C35.4411 11.124 35.6102 10.9476 35.7673 10.762C36.1325 10.3304 36.4905 9.89297 36.8492 9.45603C37.3697 8.82195 37.8866 8.18509 38.4077 7.55167C39.0065 6.82418 39.6062 6.09756 40.2112 5.37536C40.3055 5.26288 40.3843 5.14814 40.4383 5.01227C40.5357 4.7663 40.5138 4.64944 40.3136 4.4899C39.9843 4.22753 39.6511 3.96994 39.3198 3.70997C38.7448 3.25876 38.171 2.80429 37.5935 2.35554C36.9549 1.85893 36.3129 1.36684 35.785 0.959544C35.4281 0.718621 35.1917 0.553783 34.9497 0.397346C34.7774 0.286051 34.6183 0.29991 34.462 0.435013ZM36.8166 4.18505C36.8903 4.24602 36.8872 4.34454 36.7895 4.48233C36.5907 4.76243 36.3857 5.03812 36.183 5.31576C35.5673 6.1697 34.9418 7.01631 34.2907 7.84377C34.1265 8.05251 33.9479 8.24994 33.7759 8.45261C33.7472 8.48633 33.7201 8.52281 33.686 8.54985C33.6415 8.58499 33.59 8.60609 33.5365 8.56299C33.4966 8.53056 33.4933 8.48378 33.5094 8.44317C33.5335 8.38136 33.5641 8.32235 33.6009 8.26717C33.8626 7.88211 34.1175 7.49205 34.3919 7.11621C34.8427 6.49874 35.3045 5.88928 35.7658 5.27951C36.0196 4.94377 36.2809 4.61349 36.5408 4.28226C36.642 4.15347 36.7402 4.12181 36.8166 4.18505ZM35.3854 2.8207C35.4575 2.87796 35.4815 2.97685 35.4438 3.06085C35.4201 3.11055 35.3907 3.1573 35.3561 3.20015C34.7083 4.04521 34.064 4.89297 33.3818 5.71094C33.0339 6.12824 32.6877 6.54705 32.3377 6.96259C32.2668 7.04688 32.185 7.12272 32.1036 7.19676C32.0678 7.22932 32.0172 7.22046 31.9813 7.19206C31.9441 7.1642 31.9343 7.11253 31.9587 7.07295C32.0561 6.9117 32.158 6.75322 32.2582 6.59373L32.2502 6.58724C32.7273 5.94663 33.1996 5.303 33.6824 4.66633C34.1178 4.09174 34.5635 3.52493 35.0056 2.95542C35.0459 2.90352 35.0875 2.84951 35.1384 2.80967C35.2066 2.75544 35.3199 2.76649 35.3854 2.8207Z" fill="#DBA9A6"/>
</g>
</svg>
